<svg width="18" height="18" viewBox="0 0 18 18" fill="none" xmlns="http://www.w3.org/2000/svg">
<path d="M15.3639 2.63602C13.664 0.936141 11.4039 0 8.99993 0C8.99979 0 9 0 8.99986 0C6.59609 0 4.33582 0.936246 2.63602 2.63602C0.936176 4.33589 0 6.59598 0 9C7.03125e-05 10.5303 0.389531 12.0344 1.12823 13.3647L0.0194766 17.3306C-0.0317812 17.514 0.0198281 17.7108 0.154477 17.8455C0.289125 17.9801 0.485859 18.0317 0.669375 17.9805L4.63539 16.8717C5.96556 17.6105 7.46958 18 8.99996 18C11.404 18 13.6641 17.0638 15.364 15.3639C17.0639 13.6641 18 11.4039 18 8.99996C17.9999 6.59595 17.0637 4.33589 15.3639 2.63602ZM8.99993 16.9453C7.58152 16.9453 6.18922 16.5666 4.97345 15.8502C4.89157 15.8019 4.79904 15.7771 4.70573 15.7771C4.65813 15.7771 4.61039 15.7836 4.56374 15.7966L1.28739 16.7126L2.20335 13.4363C2.24198 13.2982 2.22265 13.1503 2.14984 13.0267C1.43343 11.8107 1.05476 10.4183 1.05469 8.99996C1.05469 6.87769 1.88114 4.88246 3.38182 3.38179C4.8825 1.88111 6.87772 1.05469 8.99993 1.05469C13.3809 1.05469 16.9452 4.61893 16.9453 8.99996C16.9453 13.381 13.381 16.9453 8.99993 16.9453Z" fill="white"/>
<path d="M12.8847 9.67434C12.5624 9.35196 12.1325 9.17442 11.6744 9.17442C11.2162 9.17442 10.7864 9.35196 10.4641 9.67431L10.2196 9.91875C10.1594 9.97901 10.0783 10.0122 9.99152 10.0122C9.90465 10.0122 9.82361 9.97901 9.76321 9.91861L8.08018 8.23561C8.01988 8.17535 7.9867 8.09428 7.98666 8.00741C7.98666 7.92054 8.01981 7.83954 8.08004 7.77931L8.32458 7.5348C8.99195 6.86743 8.99195 5.78153 8.32462 5.11415L7.83556 4.62495C7.51314 4.30268 7.08332 4.12524 6.6252 4.12524C6.16708 4.12524 5.73726 4.30271 5.41488 4.6251L5.05023 4.98981C4.27929 5.76075 3.99945 6.90881 4.26217 8.2226C4.50943 9.45883 5.21617 10.7103 6.25226 11.7465C7.55793 13.052 9.22082 13.8315 10.7006 13.8316H10.7009C11.6332 13.8316 12.4315 13.5263 13.0091 12.9488L13.3737 12.5841C14.0411 11.9167 14.0411 10.8307 13.3737 10.1633L12.8847 9.67434ZM12.628 11.8383L12.2633 12.203C11.8878 12.5785 11.3476 12.777 10.7009 12.777C10.7009 12.777 10.7007 12.777 10.7007 12.777C9.49444 12.7769 8.11027 12.1129 6.9981 11.0008C6.10759 10.1102 5.50326 9.05011 5.29643 8.01578C5.10508 7.05893 5.28251 6.24917 5.79607 5.73558L6.16068 5.3709C6.28383 5.24778 6.44879 5.17997 6.62523 5.17997C6.80175 5.17997 6.96678 5.24778 7.08986 5.37083L7.57885 5.85992C7.835 6.11611 7.835 6.53288 7.57888 6.78903L7.33434 7.03355C7.07485 7.293 6.93197 7.63894 6.93201 8.00758C6.93204 8.37616 7.07499 8.72206 7.33444 8.98148L9.01748 10.6644C9.277 10.924 9.62294 11.067 9.99155 11.067C10.3601 11.067 10.706 10.9241 10.9654 10.6646L11.2099 10.4201C11.333 10.297 11.498 10.2292 11.6744 10.2292C11.8509 10.2292 12.0158 10.297 12.139 10.4202L12.628 10.9092C12.8841 11.1653 12.8842 11.5821 12.628 11.8383Z" fill="white"/>
</svg>
