<svg width="96" height="96" viewBox="0 0 96 96" fill="none" xmlns="http://www.w3.org/2000/svg">
<g opacity="0.06">
<path d="M72 0H24C10.7452 0 0 10.7452 0 24V72C0 85.2548 10.7452 96 24 96H72C85.2548 96 96 85.2548 96 72V24C96 10.7452 85.2548 0 72 0Z" fill="#1565D8"/>
</g>
<path d="M57.975 22.5H37.025C27.925 22.5 22.5 27.925 22.5 37.025V57.95C22.5 67.075 27.925 72.5 37.025 72.5H57.95C67.05 72.5 72.475 67.075 72.475 57.975V37.025C72.5 27.925 67.075 22.5 57.975 22.5ZM64.75 50.675C63.05 53.225 60.7 55.3 57.95 56.675C57.7 56.8 57.4 56.875 57.125 56.875C56.425 56.875 55.775 56.5 55.45 55.85C54.975 54.925 55.35 53.8 56.3 53.325C58.475 52.25 60.325 50.6 61.65 48.6C62.1 47.925 62.1 47.075 61.65 46.4C60.3 44.4 58.45 42.75 56.3 41.675C55.35 41.225 54.975 40.1 55.45 39.15C55.9 38.225 57.025 37.85 57.95 38.325C60.7 39.7 63.05 41.775 64.75 44.325C66.05 46.25 66.05 48.75 64.75 50.675Z" fill="#1565D8"/>
<path d="M38.25 38.525C35.5 39.9 33.15 41.975 31.45 44.525C30.15 46.45 30.15 48.95 31.45 50.875C33.15 53.425 35.5 55.5 38.25 56.875C39.175 57.35 40.3 56.975 40.75 56.05C41.225 55.1 40.85 53.975 39.9 53.525C37.75 52.45 35.9 50.8 34.55 48.8C34.1 48.125 34.1 47.275 34.55 46.6C35.875 44.6 37.725 42.95 39.9 41.875C40.85 41.4 41.225 40.275 40.75 39.35C40.425 38.7 39.775 38.325 39.075 38.325C38.8 38.325 38.5 38.4 38.25 38.525Z" fill="white"/>
<path d="M47.8354 57.0561L52.8036 39.1971C53.2038 37.7586 52.553 36.2922 51.368 35.9626C50.183 35.6329 48.8685 36.5525 48.4683 37.991L43.5 55.85C43.0998 57.2885 43.7506 58.7549 44.9356 59.0845C46.1206 59.4142 47.4352 58.4946 47.8354 57.0561Z" fill="white"/>
</svg>
