<svg width="96" height="96" viewBox="0 0 96 96" fill="none" xmlns="http://www.w3.org/2000/svg">
<g opacity="0.06">
<path d="M72 0H24C10.7452 0 0 10.7452 0 24V72C0 85.2548 10.7452 96 24 96H72C85.2548 96 96 85.2548 96 72V24C96 10.7452 85.2548 0 72 0Z" fill="#1565D8"/>
</g>
<path d="M57.975 22.5H37.025C27.925 22.5 22.5 27.925 22.5 37.025V57.95C22.5 67.075 27.925 72.5 37.025 72.5H57.95C67.05 72.5 72.475 67.075 72.475 57.975V37.025C72.5 27.925 67.075 22.5 57.975 22.5ZM42.35 50.675C40.65 53.225 38.3 55.3 35.55 56.675C35.3 56.8 35 56.875 34.725 56.875C34.025 56.875 33.375 56.5 33.05 55.85C32.575 54.925 32.95 53.8 33.9 53.325C36.075 52.25 37.925 50.6 39.25 48.6C39.7 47.925 39.7 47.075 39.25 46.4C37.9 44.4 36.05 42.75 33.9 41.675C32.95 41.225 32.575 40.1 33.05 39.15C33.5 38.225 34.625 37.85 35.55 38.325C38.3 39.7 40.65 41.775 42.35 44.325C43.65 46.25 43.65 48.75 42.35 50.675ZM60 56.875H50C48.975 56.875 48.125 56.025 48.125 55C48.125 53.975 48.975 53.125 50 53.125H60C61.025 53.125 61.875 53.975 61.875 55C61.875 56.025 61.025 56.875 60 56.875Z" fill="#1565D8"/>
</svg>
