<svg width="96" height="96" viewBox="0 0 96 96" fill="none" xmlns="http://www.w3.org/2000/svg">
<g opacity="0.06">
<path d="M72 0H24C10.7452 0 0 10.7452 0 24V72C0 85.2548 10.7452 96 24 96H72C85.2548 96 96 85.2548 96 72V24C96 10.7452 85.2548 0 72 0Z" fill="#1565D8"/>
</g>
<path d="M57.975 22.5H37.025C27.925 22.5 22.5 27.925 22.5 37.025V57.95C22.5 67.075 27.925 72.5 37.025 72.5H57.95C67.05 72.5 72.475 67.075 72.475 57.975V37.025C72.5 27.925 67.075 22.5 57.975 22.5Z" fill="#1565D8"/>
<path d="M37.4706 48C37.0806 48 36.7065 48.158 36.4307 48.4393C36.1549 48.7206 36 49.1022 36 49.5V61.5C36 61.8978 36.1549 62.2794 36.4307 62.5607C36.7065 62.842 37.0806 63 37.4706 63C37.8606 63 38.2347 62.842 38.5105 62.5607C38.7862 62.2794 38.9412 61.8978 38.9412 61.5V49.5C38.9412 49.1022 38.7862 48.7206 38.5105 48.4393C38.2347 48.158 37.8606 48 37.4706 48ZM44.8235 33C44.4335 33 44.0595 33.158 43.7837 33.4393C43.5079 33.7206 43.3529 34.1022 43.3529 34.5V61.5C43.3529 61.8978 43.5079 62.2794 43.7837 62.5607C44.0595 62.842 44.4335 63 44.8235 63C45.2136 63 45.5876 62.842 45.8634 62.5607C46.1392 62.2794 46.2941 61.8978 46.2941 61.5V34.5C46.2941 34.1022 46.1392 33.7206 45.8634 33.4393C45.5876 33.158 45.2136 33 44.8235 33ZM59.5294 54C59.1394 54 58.7653 54.158 58.4895 54.4393C58.2138 54.7206 58.0588 55.1022 58.0588 55.5V61.5C58.0588 61.8978 58.2138 62.2794 58.4895 62.5607C58.7653 62.842 59.1394 63 59.5294 63C59.9194 63 60.2935 62.842 60.5693 62.5607C60.8451 62.2794 61 61.8978 61 61.5V55.5C61 55.1022 60.8451 54.7206 60.5693 54.4393C60.2935 54.158 59.9194 54 59.5294 54ZM52.1765 42C51.7864 42 51.4124 42.158 51.1366 42.4393C50.8608 42.7206 50.7059 43.1022 50.7059 43.5V61.5C50.7059 61.8978 50.8608 62.2794 51.1366 62.5607C51.4124 62.842 51.7864 63 52.1765 63C52.5665 63 52.9405 62.842 53.2163 62.5607C53.4921 62.2794 53.6471 61.8978 53.6471 61.5V43.5C53.6471 43.1022 53.4921 42.7206 53.2163 42.4393C52.9405 42.158 52.5665 42 52.1765 42Z" fill="white"/>
</svg>
