<svg width="96" height="96" viewBox="0 0 96 96" fill="none" xmlns="http://www.w3.org/2000/svg">
<g opacity="0.06">
<path d="M72 0H24C10.7452 0 0 10.7452 0 24V72C0 85.2548 10.7452 96 24 96H72C85.2548 96 96 85.2548 96 72V24C96 10.7452 85.2548 0 72 0Z" fill="#1565D8"/>
</g>
<path d="M57.975 22.5H37.025C27.925 22.5 22.5 27.925 22.5 37.025V57.95C22.5 67.075 27.925 72.5 37.025 72.5H57.95C67.05 72.5 72.475 67.075 72.475 57.975V37.025C72.5 27.925 67.075 22.5 57.975 22.5Z" fill="#1565D8"/>
<path d="M60.6494 43.6182C58.9606 37.3412 53.8324 33 48 33C42.1853 33 37.0376 37.3482 35.3506 43.6182C34.0324 43.7629 33 44.8747 33 46.2353V53.2941C33 54.3971 33.6741 55.3412 34.6306 55.7382C34.9729 58.8212 37.5653 61.2353 40.7382 61.2353H45.5153C45.8806 62.2606 46.8512 63 48 63H53.2941C54.7535 63 55.9412 61.8124 55.9412 60.3529C55.9412 58.8935 54.7535 57.7059 53.2941 57.7059H48C46.8512 57.7059 45.8806 58.4453 45.5153 59.4706H40.7382C38.6065 59.4706 36.8259 57.9529 36.4165 55.9412H38.2941V54.1765H40.0588V45.3529H38.2941V43.5882H37.2247C38.8359 38.3629 43.14 34.7647 48 34.7647C52.8741 34.7647 57.1641 38.3594 58.7753 43.5882H57.7059V45.3529H55.9412V54.1765H57.7059V55.9412H60.3635C61.8176 55.9412 63 54.7535 63 53.2941V46.2353C63 44.8747 61.9676 43.7629 60.6494 43.6182ZM48 59.4706H53.2941C53.7794 59.4706 54.1765 59.8659 54.1765 60.3529C54.1765 60.84 53.7794 61.2353 53.2941 61.2353H48C47.5147 61.2353 47.1176 60.84 47.1176 60.3529C47.1176 59.8659 47.5147 59.4706 48 59.4706ZM36.5294 54.1765H35.6365C35.1565 54.1765 34.7647 53.7812 34.7647 53.2941V46.2353C34.7647 45.7482 35.1565 45.3529 35.6365 45.3529H36.5294V54.1765ZM61.2353 53.2941C61.2353 53.7812 60.8435 54.1765 60.3635 54.1765H59.4706V45.3529H60.3635C60.8435 45.3529 61.2353 45.7482 61.2353 46.2353V53.2941Z" fill="white"/>
</svg>
