<svg width="20" height="20" viewBox="0 0 20 20" fill="none" xmlns="http://www.w3.org/2000/svg">
<path d="M13.492 1.66666H6.50866C3.47533 1.66666 1.66699 3.47499 1.66699 6.50832V13.4833C1.66699 16.525 3.47533 18.3333 6.50866 18.3333H13.4837C16.517 18.3333 18.3253 16.525 18.3253 13.4917V6.50832C18.3337 3.47499 16.5253 1.66666 13.492 1.66666Z" fill="#2F5BEA"/>
<path d="M13.3337 9.37499H10.6253V6.66666C10.6253 6.32499 10.342 6.04166 10.0003 6.04166C9.65866 6.04166 9.37533 6.32499 9.37533 6.66666V9.37499H6.66699C6.32533 9.37499 6.04199 9.65832 6.04199 9.99999C6.04199 10.3417 6.32533 10.625 6.66699 10.625H9.37533V13.3333C9.37533 13.675 9.65866 13.9583 10.0003 13.9583C10.342 13.9583 10.6253 13.675 10.6253 13.3333V10.625H13.3337C13.6753 10.625 13.9587 10.3417 13.9587 9.99999C13.9587 9.65832 13.6753 9.37499 13.3337 9.37499Z" fill="white"/>
</svg>
