<svg width="34" height="34" viewBox="0 0 34 34" fill="none" xmlns="http://www.w3.org/2000/svg">
<path d="M16.9997 32.2293C16.6597 32.2293 16.3198 32.1868 15.994 32.0876C8.64145 30.0618 3.31476 23.1908 3.31476 15.7392V9.52004C3.31476 7.93337 4.46227 6.21927 5.93561 5.61011L13.8265 2.38006C15.8807 1.54423 18.133 1.54423 20.173 2.38006L28.0639 5.61011C29.5372 6.21927 30.6848 7.93337 30.6848 9.52004V15.7392C30.6848 23.1767 25.3439 30.0476 18.0055 32.0876C17.6797 32.1868 17.3397 32.2293 16.9997 32.2293ZM16.9997 3.89591C16.1922 3.89591 15.3989 4.05176 14.6339 4.36343L6.74312 7.59338C6.06312 7.87672 5.43976 8.79755 5.43976 9.53422V15.7535C5.43976 22.256 10.1148 28.2626 16.5605 30.0476C16.8439 30.1326 17.1555 30.1326 17.4389 30.0476C23.8847 28.2626 28.5598 22.256 28.5598 15.7535V9.53422C28.5598 8.79755 27.9364 7.87672 27.2564 7.59338L19.3657 4.36343C18.6007 4.05176 17.8072 3.89591 16.9997 3.89591Z" fill="#2F5BEA"/>
<g clip-path="url(#clip0_107_10)">
<path fill-rule="evenodd" clip-rule="evenodd" d="M22.6021 16.246L14.6164 11.0129C14.1427 10.7535 13.6 10.7804 13.6 11.7118V22.0163C13.6 22.8677 14.1822 23.0019 14.6164 22.7151L22.6021 17.4821C22.9308 17.1406 22.9308 16.5875 22.6021 16.246Z" fill="#2F5BEA"/>
</g>
<defs>
<clipPath id="clip0_107_10">
<rect width="9.248" height="11.968" fill="white" transform="translate(13.6 10.88)"/>
</clipPath>
</defs>
</svg>
