<svg width="30" height="30" viewBox="0 0 30 30" fill="none" xmlns="http://www.w3.org/2000/svg">
<path fill-rule="evenodd" clip-rule="evenodd" d="M23.2376 24.2C23.9251 23.15 24.1752 22.625 24.7002 21.45C20.8502 19.9875 20.2252 14.5 24.0377 12.4C22.8752 10.9375 21.2377 10.1 19.7002 10.1C18.5877 10.1 17.8252 10.3875 17.1377 10.65C16.5627 10.875 16.0252 11.075 15.3877 11.075C14.6877 11.075 14.0752 10.85 13.4252 10.625C12.7127 10.375 11.9752 10.1 11.0502 10.1C9.31265 10.1 7.47516 11.1625 6.30016 12.9625C4.66266 15.5125 4.93766 20.3 7.60016 24.3875C8.55016 25.85 9.82516 27.4875 11.4877 27.5C12.1752 27.5125 12.6377 27.3 13.1377 27.075C13.7127 26.825 14.3252 26.5375 15.4002 26.5375C16.4752 26.525 17.0877 26.8125 17.6502 27.075C18.1377 27.3 18.5877 27.5 19.2627 27.5C20.9377 27.4875 22.2876 25.6625 23.2376 24.2Z" stroke="#04102B" stroke-width="1.5" stroke-miterlimit="10" stroke-linecap="round" stroke-linejoin="round"/>
<path opacity="0.4" fill-rule="evenodd" clip-rule="evenodd" d="M20.0125 2.58752C20.2125 3.96252 19.65 5.325 18.9125 6.275C18.125 7.3 16.75 8.10002 15.425 8.05002C15.1875 6.72502 15.8 5.36251 16.55 4.45001C17.3875 3.45001 18.8 2.67502 20.0125 2.58752Z" stroke="#04102B" stroke-width="1.5" stroke-miterlimit="10" stroke-linecap="round" stroke-linejoin="round"/>
</svg>
