<svg width="42" height="42" viewBox="0 0 42 42" fill="none" xmlns="http://www.w3.org/2000/svg">
<g clip-path="url(#clip0_2_384)">
<path d="M24.3916 17.9866C22.181 15.776 19.9111 13.8776 18 12.641C15.6477 11.1189 14.1738 10.7886 13.3614 11.6008C13.2061 11.7561 13.0929 11.9359 13.0214 12.1412L0.359891 40.8477C0.223358 41.1573 0.29068 41.5187 0.529427 41.7585C0.686731 41.9163 0.897236 42 1.11119 42C1.22202 42 1.33376 41.9776 1.43959 41.9314L30.2451 29.3527C30.4469 29.2811 30.6244 29.1699 30.7776 29.0167C31.5899 28.2043 31.2593 26.7304 29.7373 24.3782C28.5008 22.4671 26.6023 20.1972 24.3916 17.9866ZM22.3153 31.0237L20.1539 28.8623C19.8333 28.5417 19.3134 28.5417 18.9927 28.8623C18.6721 29.1829 18.6721 29.7027 18.9927 30.0234L20.6989 31.7295L12.6309 35.2526L7.07346 29.6952L10.6212 21.6518L14.3484 25.379C14.5088 25.5394 14.7189 25.6195 14.929 25.6195C15.1391 25.6195 15.3492 25.5394 15.5095 25.379C15.8301 25.0584 15.8301 24.5386 15.5095 24.2179L11.3318 20.0402L13.6064 14.8833C13.8204 15.2987 14.0848 15.7496 14.4015 16.2392C15.6382 18.1503 17.5366 20.4202 19.7472 22.6308C21.9578 24.8414 24.2277 26.7398 26.1389 27.9765C26.6243 28.2906 27.0719 28.5534 27.4844 28.7664L22.3153 31.0237ZM23.2305 19.1477C25.1823 21.0995 26.9049 23.1254 28.081 24.8522C29.2157 26.5183 29.5195 27.4366 29.5597 27.7989C29.1974 27.7587 28.279 27.4549 26.6129 26.3202C24.8861 25.1441 22.8602 23.4216 20.9084 21.4698C18.9566 19.518 17.234 17.4921 16.0579 15.7653C14.9232 14.0992 14.6194 13.1809 14.5792 12.8186C14.9415 12.8588 15.8599 13.1626 17.5259 14.2973C19.2529 15.4733 21.2787 17.1959 23.2305 19.1477ZM6.36272 31.3066L11.0146 35.9584L2.71181 39.5841L6.36272 31.3066Z" fill="#04102B"/>
<path d="M34.4114 8.71928C34.3085 8.12365 34.3036 7.92554 34.4691 7.75995C34.6347 7.59427 34.8328 7.59919 35.4286 7.70207C36.0686 7.81257 37.036 7.97956 37.8283 7.18705C38.1489 6.86645 38.1488 6.34659 37.8282 6.02599C37.5077 5.70547 36.9878 5.70539 36.6672 6.02608C36.5015 6.19159 36.3033 6.18674 35.7077 6.08396C35.0676 5.97345 34.1002 5.80662 33.308 6.59897C32.5157 7.3914 32.6828 8.3587 32.7933 8.99875C32.8961 9.59439 32.9011 9.7925 32.7355 9.95817C32.57 10.1237 32.3721 10.1189 31.7762 10.016C31.1362 9.90555 30.1689 9.73847 29.3765 10.5308C28.5842 11.3232 28.7514 12.2905 28.862 12.9305C28.9649 13.5261 28.9698 13.7242 28.8044 13.8897C28.6388 14.0552 28.4407 14.0504 27.8452 13.9474C27.2052 13.8369 26.2379 13.6698 25.4455 14.4623C25.1249 14.7829 25.125 15.3027 25.4456 15.6233C25.6058 15.7836 25.8159 15.8637 26.026 15.8637C26.2361 15.8637 26.4463 15.7835 26.6065 15.6232C26.7721 15.4577 26.9701 15.4627 27.5657 15.5654C28.2058 15.676 29.1731 15.8431 29.9654 15.0507C30.7577 14.2583 30.5905 13.2909 30.48 12.6509C30.3771 12.0554 30.3722 11.8572 30.5376 11.6918C30.7031 11.5263 30.9013 11.5311 31.4967 11.634C32.137 11.7446 33.1042 11.9116 33.8964 11.1192C34.689 10.3267 34.522 9.35942 34.4114 8.71928Z" fill="#04102B"/>
<path d="M18.1418 9.61153C18.3022 9.77187 18.5123 9.852 18.7224 9.852C18.9325 9.852 19.1426 9.77179 19.3029 9.61153C21.3447 7.56946 21.3447 4.24679 19.3029 2.20471C18.9824 1.88411 18.4625 1.88403 18.1418 2.20471C17.8212 2.52532 17.8212 3.04509 18.1418 3.36577C19.5435 4.76763 19.5435 7.0487 18.1418 8.45056C17.8212 8.77116 17.8212 9.29101 18.1418 9.61153Z" fill="#04102B"/>
<path d="M37.1554 24.3881C35.7566 24.3881 34.4414 24.9329 33.4524 25.9221C33.1318 26.2428 33.1318 26.7626 33.4524 27.0833C33.773 27.4038 34.2929 27.4038 34.6135 27.0832C35.2925 26.4041 36.1952 26.0301 37.1555 26.0301C38.1157 26.0301 39.0184 26.404 39.6975 27.0832C39.8577 27.2435 40.0679 27.3236 40.278 27.3236C40.4881 27.3236 40.6982 27.2435 40.8584 27.0833C41.1791 26.7627 41.1791 26.2428 40.8585 25.9221C39.8693 24.9329 38.5542 24.3881 37.1554 24.3881Z" fill="#04102B"/>
<path d="M39.6258 4.105C40.0792 4.105 40.4468 3.73736 40.4468 3.284L40.4467 0.821C40.4467 0.367644 40.079 0 39.6257 0C39.1722 0 38.8047 0.367644 38.8047 0.821L38.8048 3.284C38.8048 3.73744 39.1723 4.105 39.6258 4.105Z" fill="#04102B"/>
<path d="M24.9694 5.75373H25.7838V6.56808C25.7838 7.02152 26.1514 7.38908 26.6049 7.38908C27.0582 7.38908 27.4258 7.02144 27.4258 6.56808V5.75373H28.24C28.6935 5.75373 29.061 5.38609 29.061 4.93273C29.061 4.47937 28.6934 4.11173 28.24 4.11173H27.4257V3.29738C27.4257 2.84394 27.0581 2.47638 26.6046 2.47638C26.1513 2.47638 25.7837 2.84402 25.7837 3.29738V4.11173H24.9694C24.516 4.11173 24.1484 4.47937 24.1484 4.93273C24.1484 5.38609 24.5161 5.75373 24.9694 5.75373Z" fill="#04102B"/>
<path d="M40.8894 11.5761L38.4264 11.5762C37.973 11.5762 37.6055 11.9438 37.6055 12.3972C37.6055 12.8505 37.9731 13.2182 38.4266 13.2182L40.8896 13.2181C41.3429 13.2181 41.7105 12.8505 41.7105 12.3971C41.7105 11.9438 41.3429 11.576 40.8894 11.5761Z" fill="#04102B"/>
<path d="M35.5528 21.5923C36.9109 21.5923 38.0159 20.4874 38.0159 19.1293C38.0159 17.7712 36.9109 16.6663 35.5528 16.6663C34.1947 16.6663 33.0898 17.7712 33.0898 19.1293C33.0898 20.4874 34.1947 21.5923 35.5528 21.5923ZM35.5528 18.3083C36.0055 18.3083 36.3738 18.6766 36.3738 19.1293C36.3738 19.582 36.0055 19.9503 35.5528 19.9503C35.1001 19.9503 34.7318 19.582 34.7318 19.1293C34.7318 18.6766 35.1001 18.3083 35.5528 18.3083Z" fill="#04102B"/>
<path d="M17.2517 26.2997C16.7983 26.2997 16.4307 26.6672 16.4307 27.1207C16.4307 27.5741 16.7983 27.9417 17.2517 27.9417H17.2525C17.7059 27.9417 18.0731 27.5741 18.0731 27.1207C18.0731 26.6672 17.7051 26.2997 17.2517 26.2997Z" fill="#04102B"/>
<path d="M35.6355 29.5758C35.1821 29.5758 34.8145 29.9434 34.8145 30.3968C34.8145 30.8503 35.1821 31.2178 35.6355 31.2178H35.6363C36.0896 31.2178 36.4569 30.8503 36.4569 30.3968C36.4569 29.9434 36.0888 29.5758 35.6355 29.5758Z" fill="#04102B"/>
<path d="M40.5612 16.42C40.1079 16.42 39.7402 16.7875 39.7402 17.241C39.7402 17.6944 40.1079 18.062 40.5612 18.062H40.5621C41.0154 18.062 41.3826 17.6944 41.3826 17.241C41.3826 16.7875 41.0146 16.42 40.5612 16.42Z" fill="#04102B"/>
<path d="M29.861 18.9406C29.4077 18.9406 29.04 19.3081 29.04 19.7615C29.04 20.215 29.4077 20.5825 29.861 20.5825H29.8619C30.3152 20.5825 30.6824 20.215 30.6824 19.7615C30.6824 19.3081 30.3145 18.9406 29.861 18.9406Z" fill="#04102B"/>
<path d="M23.2458 10.7551C22.7924 10.7551 22.4248 11.1227 22.4248 11.5761C22.4248 12.0296 22.7924 12.3971 23.2458 12.3971H23.2466C23.7 12.3971 24.0672 12.0296 24.0672 11.5761C24.0672 11.1227 23.6992 10.7551 23.2458 10.7551Z" fill="#04102B"/>
<path d="M33.1794 0.902527C32.726 0.902527 32.3584 1.27009 32.3584 1.72353C32.3584 2.17697 32.726 2.54453 33.1794 2.54453H33.1802C33.6336 2.54453 34.0008 2.17697 34.0008 1.72353C34.0008 1.27009 33.6327 0.902527 33.1794 0.902527Z" fill="#04102B"/>
<path d="M14.2888 4.92603C13.8354 4.92603 13.4678 5.29359 13.4678 5.74702C13.4678 6.20046 13.8354 6.56802 14.2888 6.56802H14.2896C14.743 6.56802 15.1102 6.20046 15.1102 5.74702C15.1102 5.29359 14.7421 4.92603 14.2888 4.92603Z" fill="#04102B"/>
</g>
<defs>
<clipPath id="clip0_2_384">
<rect width="42" height="42" fill="white"/>
</clipPath>
</defs>
</svg>
