<svg width="34" height="34" viewBox="0 0 34 34" fill="none" xmlns="http://www.w3.org/2000/svg">
<path d="M17.0002 31.1667C24.8242 31.1667 31.1668 24.824 31.1668 17C31.1668 9.17598 24.8242 2.83334 17.0002 2.83334C9.17613 2.83334 2.8335 9.17598 2.8335 17C2.8335 24.824 9.17613 31.1667 17.0002 31.1667Z" fill="#E5E5E5"/>
<path d="M18.5014 17L21.7598 13.7417C22.1706 13.3308 22.1706 12.6508 21.7598 12.24C21.3489 11.8292 20.6689 11.8292 20.2581 12.24L16.9998 15.4983L13.7414 12.24C13.3306 11.8292 12.6506 11.8292 12.2398 12.24C11.8289 12.6508 11.8289 13.3308 12.2398 13.7417L15.4981 17L12.2398 20.2583C11.8289 20.6692 11.8289 21.3492 12.2398 21.76C12.4523 21.9725 12.7214 22.0717 12.9906 22.0717C13.2598 22.0717 13.5289 21.9725 13.7414 21.76L16.9998 18.5017L20.2581 21.76C20.4706 21.9725 20.7398 22.0717 21.0089 22.0717C21.2781 22.0717 21.5473 21.9725 21.7598 21.76C22.1706 21.3492 22.1706 20.6692 21.7598 20.2583L18.5014 17Z" fill="#04102B"/>
</svg>
