<svg width="152" height="116" viewBox="0 0 152 116" fill="none" xmlns="http://www.w3.org/2000/svg">
<path d="M4.05898 96.4651C2.04961 96.4651 0.42069 94.8361 0.42069 92.8268C0.42069 90.8174 2.04961 89.1885 4.05898 89.1885C6.06835 89.1885 7.69727 90.8174 7.69727 92.8268C7.69727 94.8361 6.06835 96.4651 4.05898 96.4651Z" fill="#DD3333"/>
<path d="M149.604 12.0991C150.81 12.0991 151.787 13.0765 151.787 14.2821C151.787 15.4877 150.81 16.4651 149.604 16.4651C148.398 16.4651 147.421 15.4877 147.421 14.2821C147.421 13.0765 148.398 12.0991 149.604 12.0991Z" fill="#DD3333"/>
<path d="M18.5233 18.5231C17.6709 19.3755 16.2884 19.3755 15.4361 18.5231L12.3489 15.4359L9.26169 18.5231C8.40931 19.3755 7.02687 19.3755 6.1745 18.5231C5.32213 17.6708 5.32213 16.2883 6.1745 15.4359L9.26169 12.3488L6.1745 9.26157C5.32212 8.4092 5.32212 7.02675 6.1745 6.17438C7.02687 5.32201 8.40931 5.32201 9.26169 6.17438L12.3489 9.26157L15.4361 6.17438C16.2884 5.32201 17.6709 5.32201 18.5233 6.17438C19.3756 7.02675 19.3756 8.4092 18.5233 9.26157L15.4361 12.3488L18.5233 15.4359C19.3756 16.2883 19.3756 17.6708 18.5233 18.5231Z" fill="#DD3333"/>
<path d="M140.77 111.349C140.202 111.917 139.28 111.917 138.712 111.349L136.654 109.291L134.595 111.349C134.027 111.917 133.106 111.917 132.537 111.349C131.969 110.781 131.969 109.859 132.537 109.291L134.595 107.233L132.537 105.174C131.969 104.606 131.969 103.685 132.537 103.116C133.106 102.548 134.027 102.548 134.595 103.116L136.654 105.174L138.712 103.116C139.28 102.548 140.202 102.548 140.77 103.116C141.338 103.685 141.338 104.606 140.77 105.174L138.712 107.233L140.77 109.291C141.338 109.859 141.338 110.781 140.77 111.349Z" fill="#DD3333"/>
<path opacity="0.4" d="M90.3395 22.0833H60.6603C47.7687 22.0833 40.0833 29.7688 40.0833 42.6604V72.3042C40.0833 85.2313 47.7687 92.9167 60.6603 92.9167H90.3041C103.196 92.9167 110.881 85.2313 110.881 72.3396V42.6604C110.917 29.7688 103.231 22.0833 90.3395 22.0833Z" fill="#DD3333"/>
<path d="M70.6834 48.6458C70.0104 48.6458 69.3375 48.3979 68.8063 47.8667C66.2917 45.3521 62.1834 45.3521 59.6688 47.8667C58.6417 48.8938 56.9417 48.8938 55.9146 47.8667C54.8875 46.8396 54.8875 45.1396 55.9146 44.1125C60.4833 39.5438 67.9563 39.5438 72.5604 44.1125C73.5875 45.1396 73.5875 46.8396 72.5604 47.8667C72.0292 48.3979 71.3563 48.6458 70.6834 48.6458Z" fill="#DD3333"/>
<path d="M80.3166 48.6458C79.6437 48.6458 78.9708 48.3979 78.4395 47.8667C77.4124 46.8396 77.4124 45.1396 78.4395 44.1125C83.0082 39.5438 90.4812 39.5438 95.0853 44.1125C96.1124 45.1396 96.1124 46.8396 95.0853 47.8667C94.0582 48.8938 92.3582 48.8938 91.3312 47.8667C88.8166 45.3521 84.7082 45.3521 82.1937 47.8667C81.6978 48.3979 81.0249 48.6458 80.3166 48.6458Z" fill="#DD3333"/>
<path d="M75.4999 57.2167C65.9728 57.2167 58.2166 64.9729 58.2166 74.5C58.2166 76.9792 60.2353 79.0333 62.7145 79.0333H88.2145C90.6936 79.0333 92.7124 77.0146 92.7124 74.5C92.7832 64.9729 85.027 57.2167 75.4999 57.2167Z" fill="#DD3333"/>
</svg>
