<svg width="64" height="64" viewBox="0 0 64 64" fill="none" xmlns="http://www.w3.org/2000/svg">
<path d="M56 18.6666V45.3333C56 53.3333 52 58.6666 42.6667 58.6666H21.3333C12 58.6666 8 53.3333 8 45.3333V18.6666C8 10.6666 12 5.33331 21.3333 5.33331H42.6667C52 5.33331 56 10.6666 56 18.6666Z" stroke="#2F5BEA" stroke-width="3" stroke-miterlimit="10" stroke-linecap="round" stroke-linejoin="round"/>
<path d="M41 25.98C37.67 25.65 34.32 25.48 30.98 25.48C29 25.48 27.02 25.58 25.04 25.78L23 25.98" stroke="#B9D1F4" stroke-width="1.5" stroke-linecap="round" stroke-linejoin="round"/>
<path opacity="0.34" d="M28.5 24.97L28.72 23.66C28.88 22.71 29 22 30.69 22H33.31C35 22 35.13 22.75 35.28 23.67L35.5 24.97" stroke="#B9D1F4" stroke-width="1.5" stroke-linecap="round" stroke-linejoin="round"/>
<path d="M38.8504 29.1401L38.2004 39.2101C38.0904 40.7801 38.0004 42.0001 35.2104 42.0001H28.7904C26.0004 42.0001 25.9104 40.7801 25.8004 39.2101L25.1504 29.1401" stroke="#B9D1F4" stroke-width="1.5" stroke-linecap="round" stroke-linejoin="round"/>
<path opacity="0.34" d="M30.3301 36.5H33.6601M29.5 32.5H34.5" stroke="#B9D1F4" stroke-width="1.5" stroke-linecap="round" stroke-linejoin="round"/>
</svg>
