<svg width="26" height="26" viewBox="0 0 26 26" fill="none" xmlns="http://www.w3.org/2000/svg">
<path d="M21.6341 10.8333H4.30078V19.5C4.30078 22.75 5.38411 23.8333 8.63411 23.8333H17.3008C20.5508 23.8333 21.6341 22.75 21.6341 19.5V10.8333Z" stroke="#2F5BEA" stroke-width="1.5" stroke-miterlimit="10" stroke-linecap="round" stroke-linejoin="round"/>
<path d="M23.2913 7.58335V8.66669C23.2913 9.85835 22.7172 10.8334 21.1247 10.8334H4.87467C3.21717 10.8334 2.70801 9.85835 2.70801 8.66669V7.58335C2.70801 6.39169 3.21717 5.41669 4.87467 5.41669H21.1247C22.7172 5.41669 23.2913 6.39169 23.2913 7.58335Z" stroke="#2F5BEA" stroke-width="1.5" stroke-miterlimit="10" stroke-linecap="round" stroke-linejoin="round"/>
<path opacity="0.4" d="M12.6097 5.41666H6.62969C6.26135 5.01583 6.27219 4.39833 6.66219 4.00833L8.20052 2.47C8.60135 2.06916 9.26219 2.06916 9.66302 2.47L12.6097 5.41666Z" stroke="#2F5BEA" stroke-width="1.5" stroke-miterlimit="10" stroke-linecap="round" stroke-linejoin="round"/>
<path opacity="0.4" d="M19.3589 5.41666H13.3789L16.3256 2.47C16.7264 2.06916 17.3872 2.06916 17.7881 2.47L19.3264 4.00833C19.7164 4.39833 19.7272 5.01583 19.3589 5.41666Z" stroke="#2F5BEA" stroke-width="1.5" stroke-miterlimit="10" stroke-linecap="round" stroke-linejoin="round"/>
<path opacity="0.4" d="M9.68457 10.8333V16.4016C9.68457 17.2683 10.6379 17.7775 11.3637 17.3116L12.3821 16.64C12.7504 16.4016 13.2162 16.4016 13.5737 16.64L14.5379 17.29C15.2529 17.7666 16.2171 17.2575 16.2171 16.3908V10.8333H9.68457Z" stroke="#2F5BEA" stroke-width="1.5" stroke-miterlimit="10" stroke-linecap="round" stroke-linejoin="round"/>
</svg>
