<svg width="28" height="28" viewBox="0 0 28 28" fill="none" xmlns="http://www.w3.org/2000/svg">
<path d="M8.75002 4.66666H19.25C19.9734 4.66666 20.615 4.68999 21.1867 4.77166C24.255 5.10999 25.0834 6.55666 25.0834 10.5V17.5C25.0834 21.4433 24.255 22.89 21.1867 23.2283C20.615 23.31 19.9734 23.3333 19.25 23.3333H8.75002C8.02669 23.3333 7.38502 23.31 6.81335 23.2283C3.74502 22.89 2.91669 21.4433 2.91669 17.5V10.5C2.91669 6.55666 3.74502 5.10999 6.81335 4.77166C7.38502 4.68999 8.02669 4.66666 8.75002 4.66666Z" stroke="#04102B" stroke-width="1.5" stroke-linecap="round" stroke-linejoin="round"/>
<path d="M15.75 11.6667H19.8333" stroke="#04102B" stroke-opacity="0.4" stroke-width="1.5" stroke-linecap="round" stroke-linejoin="round"/>
<path d="M8.16669 18.0833H8.19002H19.8334" stroke="#04102B" stroke-opacity="0.4" stroke-width="1.5" stroke-linecap="round" stroke-linejoin="round"/>
<path d="M11.7771 11.6667H11.7875" stroke="#04102B" stroke-width="2" stroke-linecap="round" stroke-linejoin="round"/>
<path d="M8.27706 11.6667H8.28754" stroke="#04102B" stroke-width="2" stroke-linecap="round" stroke-linejoin="round"/>
</svg>
