<svg width="22" height="22" viewBox="0 0 22 22" fill="none" xmlns="http://www.w3.org/2000/svg">
<path d="M6.87508 3.66669H15.1251C15.6934 3.66669 16.1976 3.68502 16.6467 3.74919C19.0576 4.01502 19.7084 5.15169 19.7084 8.25002V13.75C19.7084 16.8484 19.0576 17.985 16.6467 18.2509C16.1976 18.315 15.6934 18.3334 15.1251 18.3334H6.87508C6.30675 18.3334 5.80258 18.315 5.35341 18.2509C2.94258 17.985 2.29175 16.8484 2.29175 13.75V8.25002C2.29175 5.15169 2.94258 4.01502 5.35341 3.74919C5.80258 3.68502 6.30675 3.66669 6.87508 3.66669Z" stroke="#A7A7A7" stroke-width="1.5" stroke-linecap="round" stroke-linejoin="round"/>
<path d="M12.375 9.16669H15.5833" stroke="#A7A7A7" stroke-opacity="0.4" stroke-width="1.5" stroke-linecap="round" stroke-linejoin="round"/>
<path d="M6.41675 14.2083H6.43508H15.5834" stroke="#A7A7A7" stroke-opacity="0.4" stroke-width="1.5" stroke-linecap="round" stroke-linejoin="round"/>
<path d="M9.25335 9.16665H9.26158" stroke="#A7A7A7" stroke-width="2" stroke-linecap="round" stroke-linejoin="round"/>
<path d="M6.50335 9.16665H6.51158" stroke="#A7A7A7" stroke-width="2" stroke-linecap="round" stroke-linejoin="round"/>
</svg>
