<svg width="30" height="30" viewBox="0 0 30 30" fill="none" xmlns="http://www.w3.org/2000/svg">
<path d="M9.89959 18.212L9.89918 18.2117C9.0377 17.7478 7.96198 18.0679 7.49705 18.9312C7.0335 19.7919 7.35252 20.8682 8.21531 21.333C9.75836 22.1662 11.4591 22.6916 13.2045 22.8855C13.305 23.7823 13.4851 24.7115 13.7662 25.6507H3.49597C2.61967 25.6507 1.9 24.9311 1.9 24.0548V5.996C1.9 5.1197 2.61967 4.40003 3.49597 4.40003H13.7161C13.2281 5.60582 12.5976 7.25173 12.0428 8.97954C11.339 11.1712 10.7316 13.57 10.7316 15.3763V16.4993V17.1493H11.3816H13.4741C13.3515 17.7756 13.2403 18.503 13.1714 19.3026C12.0246 19.1264 10.9138 18.7591 9.89959 18.212ZM9.05813 8.22366C8.16628 8.22366 7.44292 8.94702 7.44292 9.83887V11.2426C7.44292 12.1344 8.16628 12.8578 9.05813 12.8578C9.95078 12.8578 10.6733 12.1342 10.6733 11.2426V9.83887C10.6733 8.94622 9.94972 8.22366 9.05813 8.22366Z" stroke="#04102B" stroke-width="1.3"/>
<path opacity="0.4" d="M17.505 25.6513C17.4951 25.6218 17.4844 25.5922 17.4727 25.5627L17.4726 25.5623C17.111 24.6472 16.8917 23.7189 16.7719 22.8139C18.4315 22.5655 20.0396 22.019 21.5031 21.1862C22.3539 20.7022 22.6519 19.6199 22.1678 18.7687C21.6842 17.9169 20.6006 17.6195 19.7498 18.1038C18.8188 18.6329 17.8049 19.0082 16.7533 19.2202C16.9577 17.3653 17.4105 16.0719 17.4336 16.0058C17.4341 16.0044 17.4344 16.0036 17.4345 16.0033L17.4345 16.0033L17.4365 15.998L18.0047 14.4814L18.3337 13.6033H17.396H14.4742C14.7875 11.9335 15.4299 9.92501 16.0762 8.14832C16.6704 6.51458 17.2556 5.10948 17.5592 4.40003H25.9571C26.8336 4.40003 27.5528 5.11969 27.552 5.99541V5.99601V24.0553C27.552 24.9316 26.8323 25.6513 25.956 25.6513H17.505ZM17.5907 26.3013H25.956C27.1913 26.3013 28.202 25.2906 28.202 24.0553V5.99601C28.2031 4.76072 27.1924 3.75003 25.9571 3.75003H17.1321L17.5907 26.3013ZM20.6269 12.8752C21.5182 12.8752 22.2426 12.1523 22.2426 11.26V9.85627C22.2426 8.96394 21.5182 8.24107 20.6269 8.24107C19.7342 8.24107 19.0117 8.96468 19.0117 9.85627V11.26C19.0117 12.1521 19.7358 12.8752 20.6269 12.8752Z" stroke="#04102B" stroke-width="1.3"/>
</svg>
