<svg width="18" height="18" viewBox="0 0 18 18" fill="none" xmlns="http://www.w3.org/2000/svg">
<g clip-path="url(#clip0_237_4)">
<path fill-rule="evenodd" clip-rule="evenodd" d="M0.818182 1.74194H17.1818C17.3988 1.74194 17.6069 1.65018 17.7604 1.48684C17.9138 1.3235 18 1.10196 18 0.870968C18 0.639973 17.9138 0.418434 17.7604 0.255095C17.6069 0.0917573 17.3988 0 17.1818 0H0.818182C0.601187 0 0.393074 0.0917573 0.239635 0.255095C0.0861963 0.418434 0 0.639973 0 0.870968C0 1.10196 0.0861963 1.3235 0.239635 1.48684C0.393074 1.65018 0.601187 1.74194 0.818182 1.74194ZM0.818182 5.80645H11.1818C11.3988 5.80645 11.6069 5.71469 11.7604 5.55136C11.9138 5.38802 12 5.16648 12 4.93548C12 4.70449 11.9138 4.48295 11.7604 4.31961C11.6069 4.15627 11.3988 4.06452 11.1818 4.06452H0.818182C0.601187 4.06452 0.393074 4.15627 0.239635 4.31961C0.0861963 4.48295 0 4.70449 0 4.93548C0 5.16648 0.0861963 5.38802 0.239635 5.55136C0.393074 5.71469 0.601187 5.80645 0.818182 5.80645ZM0.818182 9.87097H16.0909C16.3079 9.87097 16.516 9.77921 16.6695 9.61587C16.8229 9.45253 16.9091 9.23099 16.9091 9C16.9091 8.76901 16.8229 8.54747 16.6695 8.38413C16.516 8.22079 16.3079 8.12903 16.0909 8.12903H0.818182C0.601187 8.12903 0.393074 8.22079 0.239635 8.38413C0.0861963 8.54747 0 8.76901 0 9C0 9.23099 0.0861963 9.45253 0.239635 9.61587C0.393074 9.77921 0.601187 9.87097 0.818182 9.87097ZM0.818182 13.9355H14.4545C14.6715 13.9355 14.8797 13.8437 15.0331 13.6804C15.1865 13.517 15.2727 13.2955 15.2727 13.0645C15.2727 12.8335 15.1865 12.612 15.0331 12.4486C14.8797 12.2853 14.6715 12.1935 14.4545 12.1935H0.818182C0.601187 12.1935 0.393074 12.2853 0.239635 12.4486C0.0861963 12.612 0 12.8335 0 13.0645C0 13.2955 0.0861963 13.517 0.239635 13.6804C0.393074 13.8437 0.601187 13.9355 0.818182 13.9355ZM17.1818 16.2581H0.818182C0.601187 16.2581 0.393074 16.3498 0.239635 16.5132C0.0861963 16.6765 0 16.898 0 17.129C0 17.36 0.0861963 17.5816 0.239635 17.7449C0.393074 17.9082 0.601187 18 0.818182 18H17.1818C17.3988 18 17.6069 17.9082 17.7604 17.7449C17.9138 17.5816 18 17.36 18 17.129C18 16.898 17.9138 16.6765 17.7604 16.5132C17.6069 16.3498 17.3988 16.2581 17.1818 16.2581Z" fill="#797C7F"/>
</g>
<defs>
<clipPath id="clip0_237_4">
<rect width="18" height="18" fill="white"/>
</clipPath>
</defs>
</svg>
