<svg width="25" height="24" viewBox="0 0 25 24" fill="none" xmlns="http://www.w3.org/2000/svg">
<path d="M22.375 7.42987V13.4299C22.375 14.9299 21.875 16.1799 20.995 17.0599C20.125 17.9299 18.875 18.4299 17.375 18.4299V20.5599C17.375 21.3599 16.485 21.8399 15.825 21.3999L11.375 18.4299H9.255C9.335 18.1299 9.375 17.8199 9.375 17.4999C9.375 16.4799 8.985 15.5399 8.345 14.8299C7.625 14.0099 6.555 13.4999 5.375 13.4999C4.255 13.4999 3.235 13.9599 2.505 14.7099C2.415 14.3099 2.375 13.8799 2.375 13.4299V7.42987C2.375 4.42987 4.375 2.42987 7.375 2.42987H17.375C20.375 2.42987 22.375 4.42987 22.375 7.42987Z" stroke="#04102B" stroke-width="1.5" stroke-miterlimit="10" stroke-linecap="round" stroke-linejoin="round"/>
<g opacity="0.4">
<path d="M9.375 17.4999C9.375 18.2499 9.16501 18.9599 8.79501 19.5599C8.58501 19.9199 8.315 20.2399 8.005 20.4999C7.305 21.1299 6.385 21.4999 5.375 21.4999C3.915 21.4999 2.64499 20.7199 1.95499 19.5599C1.58499 18.9599 1.375 18.2499 1.375 17.4999C1.375 16.2399 1.955 15.1099 2.875 14.3799C3.565 13.8299 4.435 13.4999 5.375 13.4999C7.585 13.4999 9.375 15.2899 9.375 17.4999Z" stroke="#04102B" stroke-width="1.5" stroke-miterlimit="10" stroke-linecap="round" stroke-linejoin="round"/>
<path d="M3.81543 17.4999L4.80542 18.4899L6.93542 16.5199" stroke="#04102B" stroke-width="1.5" stroke-linecap="round" stroke-linejoin="round"/>
</g>
<path opacity="0.4" d="M8.875 10.4999H15.875" stroke="#04102B" stroke-width="1.5" stroke-miterlimit="10" stroke-linecap="round" stroke-linejoin="round"/>
</svg>
