<svg width="64" height="64" viewBox="0 0 64 64" fill="none" xmlns="http://www.w3.org/2000/svg">
<path d="M47.44 60.6406H16.56C9.25334 60.6406 3.33334 54.6939 3.33334 47.3872V27.6272C3.33334 24.0006 5.57334 19.4406 8.45334 17.2006L22.8267 6.00058C27.1467 2.64057 34.0533 2.48057 38.5333 5.62725L55.0133 17.1739C58.1867 19.3872 60.6667 24.1339 60.6667 28.0006V47.4139C60.6667 54.6939 54.7467 60.6406 47.44 60.6406ZM25.28 9.14725L10.9067 20.3472C9.01334 21.8406 7.33334 25.2272 7.33334 27.6272V47.3872C7.33334 52.4806 11.4667 56.6406 16.56 56.6406H47.44C52.5333 56.6406 56.6667 52.5072 56.6667 47.4139V28.0006C56.6667 25.4406 54.8267 21.8939 52.72 20.4539L36.24 8.90725C33.2 6.77391 28.1867 6.88058 25.28 9.14725Z" fill="#2F5BEA"/>
<path d="M20.0011 45.9998C19.4945 45.9998 18.9878 45.8131 18.5878 45.4131C17.8145 44.6398 17.8145 43.3598 18.5878 42.5864L27.1211 34.0531C27.5477 33.6264 28.1077 33.4131 28.7211 33.4664C29.3077 33.5198 29.8411 33.8398 30.1877 34.3464L33.0944 38.7198L42.5611 29.2531C43.3344 28.4798 44.6144 28.4798 45.3877 29.2531C46.1611 30.0264 46.1611 31.3064 45.3877 32.0798L34.1877 43.2798C33.7611 43.7064 33.2011 43.9198 32.5877 43.8664C32.0011 43.8131 31.4677 43.4931 31.1211 42.9864L28.2144 38.6131L21.4145 45.4131C21.0145 45.8131 20.5078 45.9998 20.0011 45.9998Z" fill="#B9D1F4"/>
<path d="M44 38C42.9067 38 42 37.0934 42 36V32.6667H38.6667C37.5733 32.6667 36.6667 31.76 36.6667 30.6667C36.6667 29.5734 37.5733 28.6667 38.6667 28.6667H44C45.0933 28.6667 46 29.5734 46 30.6667V36C46 37.0934 45.0933 38 44 38Z" fill="#B9D1F4"/>
</svg>
