<svg width="28" height="28" viewBox="0 0 28 28" fill="none" xmlns="http://www.w3.org/2000/svg">
<path d="M7.85168 22.9833C8.80834 21.9567 10.2667 22.0383 11.1067 23.1583L12.285 24.7333C13.23 25.9817 14.7583 25.9817 15.7033 24.7333L16.8817 23.1583C17.7217 22.0383 19.18 21.9567 20.1367 22.9833C22.2133 25.2 23.905 24.465 23.905 21.3617V8.21334C23.9167 3.51168 22.82 2.33334 18.41 2.33334H9.59001C5.18001 2.33334 4.08334 3.51168 4.08334 8.21334V21.35C4.08334 24.465 5.78668 25.1883 7.85168 22.9833Z" stroke="#04102B" stroke-width="1.5" stroke-linecap="round" stroke-linejoin="round"/>
<path opacity="0.4" d="M10.5 15.1667L17.5 8.16666" stroke="#04102B" stroke-width="1.5" stroke-linecap="round" stroke-linejoin="round"/>
<path opacity="0.4" d="M17.4936 15.1667H17.5041" stroke="#04102B" stroke-width="2" stroke-linecap="round" stroke-linejoin="round"/>
<path opacity="0.4" d="M10.4936 8.74999H10.5041" stroke="#04102B" stroke-width="2" stroke-linecap="round" stroke-linejoin="round"/>
</svg>
