<svg width="28" height="28" viewBox="0 0 28 28" fill="none" xmlns="http://www.w3.org/2000/svg">
<path d="M24.5 8.16668V19.8333C24.5 23.3333 22.75 25.6667 18.6667 25.6667H9.33333C5.25 25.6667 3.5 23.3333 3.5 19.8333V8.16668C3.5 4.66668 5.25 2.33334 9.33333 2.33334H18.6667C22.75 2.33334 24.5 4.66668 24.5 8.16668Z" stroke="#D9D9D9" stroke-width="1.5" stroke-miterlimit="10" stroke-linecap="round" stroke-linejoin="round"/>
<path d="M17.4492 9.16996H9.79372L10.9901 7.97364C11.1746 7.78909 11.1746 7.4836 10.9901 7.29905C10.8055 7.11451 10.5001 7.11451 10.3155 7.29905L8.30461 9.30999C8.26007 9.35453 8.22827 9.40544 8.20281 9.46271C8.17736 9.51998 8.16461 9.5836 8.16461 9.64724C8.16461 9.71087 8.17736 9.77453 8.20281 9.83181C8.22827 9.88908 8.26007 9.93998 8.30461 9.98453L10.3155 11.9954C10.411 12.0909 10.5319 12.1354 10.6528 12.1354C10.7737 12.1354 10.8946 12.0909 10.9901 11.9954C11.1746 11.8109 11.1746 11.5054 10.9901 11.3209L9.79372 10.1245H17.4492C18.2383 10.1245 18.881 10.7672 18.881 11.5563V13.6691C18.881 13.93 19.0974 14.1464 19.3583 14.1464C19.6192 14.1464 19.8355 13.93 19.8355 13.6691V11.5563C19.8355 10.2391 18.7664 9.16996 17.4492 9.16996Z" fill="#292D32"/>
<path opacity="0.4" d="M19.8355 18.3527C19.8355 18.2891 19.8228 18.2255 19.7974 18.1682C19.7719 18.1109 19.7401 18.06 19.6955 18.0155L17.6846 16.0045C17.5001 15.82 17.1946 15.82 17.0101 16.0045C16.8255 16.1891 16.8255 16.4945 17.0101 16.6791L18.2064 17.8755H10.551C9.76188 17.8755 9.11916 17.2327 9.11916 16.4436V14.3309C9.11916 14.07 8.90279 13.8536 8.64188 13.8536C8.38098 13.8536 8.16461 14.07 8.16461 14.3309V16.4436C8.16461 17.7609 9.2337 18.83 10.551 18.83H18.2064L17.0101 20.0264C16.8255 20.2109 16.8255 20.5164 17.0101 20.7009C17.1055 20.7964 17.2264 20.8409 17.3474 20.8409C17.4683 20.8409 17.5892 20.7964 17.6846 20.7009L19.6955 18.69C19.7401 18.6455 19.7719 18.5945 19.7974 18.5373C19.8228 18.48 19.8355 18.4164 19.8355 18.3527Z" fill="#292D32"/>
</svg>
