<svg width="19" height="22" viewBox="0 0 19 22" fill="none" xmlns="http://www.w3.org/2000/svg">
<path fill-rule="evenodd" clip-rule="evenodd" d="M9.5 1.5C17 1.5 17.5 3.5 17.5 3.5V10.15C17.5004 11.9244 17.0285 13.6669 16.1326 15.1985C15.2368 16.7301 13.9493 17.9956 12.4025 18.865L9.5 20.5L6.5975 18.865C5.05071 17.9956 3.76324 16.7301 2.86739 15.1985C1.97153 13.6669 1.49957 11.9244 1.5 10.15V3.5C1.5 3.5 1.5 1.5 9.5 1.5ZM9.5 0C5.947 0 3.36649 0.390034 1.82899 1.16003C0.131995 2.00503 0 3.165 0 3.5V10.15C0.00137632 12.1905 0.544877 14.194 1.57487 15.9554C2.60487 17.7169 4.08438 19.1732 5.862 20.175L8.7645 21.8051C8.98856 21.9329 9.24205 22 9.5 22C9.75795 22 10.0114 21.9329 10.2355 21.8051L13.138 20.175C14.9156 19.1732 16.3951 17.7169 17.4251 15.9554C18.4551 14.194 18.9986 12.1905 19 10.15V3.5C19.0001 3.37694 18.985 3.25435 18.955 3.13501C18.6625 1.96501 17.0445 0 9.5 0ZM9 13.75C8.80108 13.7495 8.61042 13.6704 8.4695 13.53L4.9695 10.03C4.83702 9.88785 4.7649 9.69979 4.76833 9.50549C4.77175 9.31119 4.85047 9.12582 4.98788 8.9884C5.1253 8.85099 5.31067 8.77223 5.50497 8.7688C5.69928 8.76537 5.88732 8.83749 6.0295 8.96997L8.9995 11.9399L13.9695 6.96997C14.0382 6.89628 14.121 6.83726 14.213 6.79626C14.305 6.75527 14.4043 6.73322 14.505 6.73145C14.6057 6.72967 14.7057 6.74817 14.7991 6.78589C14.8925 6.82361 14.9773 6.87971 15.0485 6.95093C15.1198 7.02215 15.1759 7.10705 15.2136 7.20044C15.2513 7.29383 15.2699 7.3938 15.2681 7.49451C15.2663 7.59521 15.2443 7.6945 15.2033 7.7865C15.1623 7.8785 15.1032 7.96137 15.0295 8.03003L9.5295 13.53C9.38882 13.6702 9.19857 13.7492 9 13.75V13.75Z" fill="#2F5BEA"/>
</svg>
