<svg width="125" height="125" viewBox="0 0 125 125" fill="none" xmlns="http://www.w3.org/2000/svg">
<path d="M62.499 118.49C61.249 118.49 59.9995 118.334 58.8016 117.969C31.7701 110.521 12.1867 85.2604 12.1867 57.8646V35.0002C12.1867 29.1668 16.4055 22.865 21.8221 20.6254L50.8326 8.75026C58.3849 5.67734 66.6656 5.67734 74.1656 8.75026L103.176 20.6254C108.593 22.865 112.812 29.1668 112.812 35.0002V57.8646C112.812 85.2083 93.176 110.469 66.1969 117.969C64.999 118.334 63.749 118.49 62.499 118.49ZM62.499 14.3232C59.5302 14.3232 56.6135 14.8962 53.801 16.042L24.7909 27.9169C22.2909 28.9585 19.9992 32.344 19.9992 35.0523V57.9172C19.9992 81.8234 37.1867 103.907 60.8844 110.469C61.926 110.782 63.0719 110.782 64.1135 110.469C87.8115 103.907 104.999 81.8234 104.999 57.9172V35.0523C104.999 32.344 102.707 28.9585 100.207 27.9169L71.1974 16.042C68.3849 14.8962 65.4677 14.3232 62.499 14.3232Z" fill="#2F5BEA"/>
<g clip-path="url(#clip0_107_10)">
<path fill-rule="evenodd" clip-rule="evenodd" d="M83.0959 59.7278L53.7369 40.4887C51.9952 39.5349 50 39.6339 50 43.058V80.9421C50 84.0724 52.1405 84.5658 53.7369 83.5114L83.0959 64.2723C84.3045 63.0167 84.3045 60.9834 83.0959 59.7278Z" fill="#2F5BEA"/>
</g>
<defs>
<clipPath id="clip0_107_10">
<rect width="34" height="44" fill="white" transform="translate(50 40)"/>
</clipPath>
</defs>
</svg>
