<svg width="64" height="64" viewBox="0 0 64 64" fill="none" xmlns="http://www.w3.org/2000/svg">
<path d="M16 26.6666V21.3333C16 12.5066 18.6667 5.33331 32 5.33331C45.3333 5.33331 48 12.5066 48 21.3333V26.6666M45.3333 58.6666H18.6667C7.99999 58.6666 5.33333 56 5.33333 45.3333V40C5.33333 29.3333 7.99999 26.6666 18.6667 26.6666H45.3333C56 26.6666 58.6667 29.3333 58.6667 40V45.3333C58.6667 56 56 58.6666 45.3333 58.6666Z" stroke="#2F5BEA" stroke-width="3" stroke-linecap="round" stroke-linejoin="round"/>
<path d="M22.3515 49.18C21.5235 49.18 20.4075 49.066 19.0035 48.838L18.3555 48.73L18.5355 47.344C20.1555 47.56 21.3915 47.668 22.2435 47.668C23.8635 47.668 24.6735 46.93 24.6735 45.454C24.6735 45.046 24.5895 44.722 24.4215 44.482C24.2535 44.23 23.9835 44.032 23.6115 43.888C23.2515 43.732 22.7415 43.582 22.0815 43.438C21.1095 43.21 20.3535 42.958 19.8135 42.682C19.2735 42.394 18.8775 42.028 18.6255 41.584C18.3735 41.14 18.2475 40.558 18.2475 39.838C18.2475 38.698 18.5895 37.84 19.2735 37.264C19.9575 36.688 20.9655 36.4 22.2975 36.4C22.7895 36.4 23.3175 36.43 23.8815 36.49C24.4575 36.55 25.2135 36.658 26.1495 36.814L26.0055 38.218C24.3615 38.026 23.1735 37.93 22.4415 37.93C20.7975 37.93 19.9755 38.53 19.9755 39.73C19.9755 40.174 20.0655 40.522 20.2455 40.774C20.4375 41.026 20.7375 41.236 21.1455 41.404C21.5535 41.56 22.1715 41.734 22.9995 41.926C23.8635 42.142 24.5355 42.382 25.0155 42.646C25.4955 42.91 25.8435 43.252 26.0595 43.672C26.2875 44.092 26.4015 44.644 26.4015 45.328C26.4015 46.6 26.0535 47.56 25.3575 48.208C24.6735 48.856 23.6715 49.18 22.3515 49.18ZM32.1249 49.18C31.2969 49.18 30.1809 49.066 28.7769 48.838L28.1289 48.73L28.3089 47.344C29.9289 47.56 31.1649 47.668 32.0169 47.668C33.6369 47.668 34.4469 46.93 34.4469 45.454C34.4469 45.046 34.3629 44.722 34.1949 44.482C34.0269 44.23 33.7569 44.032 33.3849 43.888C33.0249 43.732 32.5149 43.582 31.8549 43.438C30.8829 43.21 30.1269 42.958 29.5869 42.682C29.0469 42.394 28.6509 42.028 28.3989 41.584C28.1469 41.14 28.0209 40.558 28.0209 39.838C28.0209 38.698 28.3629 37.84 29.0469 37.264C29.7309 36.688 30.7389 36.4 32.0709 36.4C32.5629 36.4 33.0909 36.43 33.6549 36.49C34.2309 36.55 34.9869 36.658 35.9229 36.814L35.7789 38.218C34.1349 38.026 32.9469 37.93 32.2149 37.93C30.5709 37.93 29.7489 38.53 29.7489 39.73C29.7489 40.174 29.8389 40.522 30.0189 40.774C30.2109 41.026 30.5109 41.236 30.9189 41.404C31.3269 41.56 31.9449 41.734 32.7729 41.926C33.6369 42.142 34.3089 42.382 34.7889 42.646C35.2689 42.91 35.6169 43.252 35.8329 43.672C36.0609 44.092 36.1749 44.644 36.1749 45.328C36.1749 46.6 35.8269 47.56 35.1309 48.208C34.4469 48.856 33.4449 49.18 32.1249 49.18ZM45.3364 47.47V49H38.4604V36.616H40.1884V47.47H45.3364Z" fill="#B9D1F4"/>
</svg>
