<svg width="147" height="110" viewBox="0 0 147 110" fill="none" xmlns="http://www.w3.org/2000/svg">
<path d="M6.60979 99.565C9.95758 99.565 12.6812 96.8414 12.6812 93.4936C12.6812 92.8231 13.225 92.2793 13.8955 92.2793C14.566 92.2793 15.1098 92.8231 15.1098 93.4936C15.1098 96.8414 17.8334 99.565 21.1812 99.565C21.8518 99.565 22.3955 100.109 22.3955 100.779C22.3955 101.45 21.8518 101.994 21.1812 101.994C17.8334 101.994 15.1098 104.717 15.1098 108.065C15.1098 108.736 14.566 109.279 13.8955 109.279C13.225 109.279 12.6812 108.736 12.6812 108.065C12.6812 104.717 9.95758 101.994 6.60979 101.994C5.93927 101.994 5.39551 101.45 5.39551 100.779C5.39551 100.109 5.93927 99.565 6.60979 99.565ZM13.8955 103.692C14.6138 102.5 15.6162 101.498 16.8083 100.779C15.6162 100.061 14.6138 99.0587 13.8955 97.8665C13.1773 99.0587 12.1749 100.061 10.9827 100.779C12.1749 101.498 13.1773 102.5 13.8955 103.692Z" fill="#579F57"/>
<path d="M2 21C0.89543 21 -2.7141e-07 20.1046 -1.74846e-07 19C-7.8281e-08 17.8954 0.89543 17 2 17C3.10457 17 4 17.8954 4 19C4 20.1046 3.10457 21 2 21Z" fill="#579F57"/>
<path d="M145.957 6.85714C143.594 6.85714 141.672 8.77971 141.672 11.1429C141.672 11.6162 141.288 12 140.814 12C140.341 12 139.957 11.6162 139.957 11.1429C139.957 8.77971 138.035 6.85714 135.672 6.85714C135.198 6.85714 134.814 6.47331 134.814 6C134.814 5.52668 135.198 5.14286 135.672 5.14286C138.035 5.14286 139.957 3.22029 139.957 0.857142C139.957 0.383828 140.341 -5.65915e-07 140.814 -5.24537e-07C141.288 -4.83158e-07 141.672 0.383828 141.672 0.857142C141.672 3.22029 143.594 5.14286 145.957 5.14286C146.431 5.14286 146.814 5.52669 146.814 6C146.814 6.47331 146.431 6.85714 145.957 6.85714ZM140.814 3.94389C140.307 4.78543 139.6 5.493 138.758 6C139.6 6.507 140.307 7.21457 140.814 8.05611C141.321 7.21457 142.029 6.507 142.871 6C142.029 5.493 141.321 4.78543 140.814 3.94389Z" fill="#579F57"/>
<path d="M134.396 102C132.739 102 131.396 100.657 131.396 99C131.396 97.3431 132.739 96 134.396 96C136.052 96 137.396 97.3431 137.396 99C137.396 100.657 136.052 102 134.396 102Z" fill="#579F57"/>
<path opacity="0.4" d="M88.3395 20.0833H58.6603C45.7687 20.0833 38.0833 27.7688 38.0833 40.6604V70.3042C38.0833 83.2313 45.7687 90.9167 58.6603 90.9167H88.3041C101.196 90.9167 108.881 83.2313 108.881 70.3396V40.6604C108.917 27.7688 101.231 20.0833 88.3395 20.0833Z" fill="#579F57"/>
<path d="M85.8959 48.8771C89.5732 48.8771 92.5542 45.8961 92.5542 42.2188C92.5542 38.5415 89.5732 35.5604 85.8959 35.5604C82.2186 35.5604 79.2375 38.5415 79.2375 42.2188C79.2375 45.8961 82.2186 48.8771 85.8959 48.8771Z" fill="#579F57"/>
<path d="M61.1041 48.8771C64.7814 48.8771 67.7625 45.8961 67.7625 42.2188C67.7625 38.5415 64.7814 35.5604 61.1041 35.5604C57.4268 35.5604 54.4458 38.5415 54.4458 42.2188C54.4458 45.8961 57.4268 48.8771 61.1041 48.8771Z" fill="#579F57"/>
<path d="M86.2501 58.7583H60.7501C58.2709 58.7583 56.2522 60.7771 56.2522 63.2917C56.2522 72.8187 64.0084 80.575 73.5355 80.575C83.0626 80.575 90.8188 72.8187 90.8188 63.2917C90.7834 60.8125 88.7293 58.7583 86.2501 58.7583Z" fill="#579F57"/>
</svg>
