<svg width="64" height="64" viewBox="0 0 64 64" fill="none" xmlns="http://www.w3.org/2000/svg">
<path d="M53.3333 32.5334V37.0667C53.3333 45.4667 48.5333 49.0667 41.3333 49.0667H17.3333C10.1333 49.0667 5.33333 45.4667 5.33333 37.0667V22.6667C5.33333 14.2667 10.1333 10.6667 17.3333 10.6667H24.5333C24.1867 11.68 24 12.8 24 14V24.4001C24 26.9867 24.8533 29.1734 26.3733 30.6934C27.8933 32.2134 30.08 33.0667 32.6667 33.0667V36.7734C32.6667 38.1334 34.2133 38.96 35.36 38.2134L43.0667 33.0667H50C51.2 33.0667 52.32 32.88 53.3333 32.5334Z" stroke="#2F5BEA" stroke-width="3" stroke-miterlimit="10" stroke-linecap="round" stroke-linejoin="round"/>
<path d="M19 58.6003H38.1999M28.5999 49V58.6" stroke="#2F5BEA" stroke-width="3" stroke-miterlimit="10" stroke-linecap="round" stroke-linejoin="round"/>
<path d="M58.6667 14V24.4C58.6667 28.3733 56.64 31.36 53.3333 32.5333C52.32 32.88 51.2 33.0666 50 33.0666H43.0667L35.36 38.2133C34.2133 38.96 32.6667 38.1333 32.6667 36.7733V33.0666C30.08 33.0666 27.8933 32.2133 26.3733 30.6933C24.8533 29.1733 24 26.9866 24 24.4V14C24 12.8 24.1867 11.68 24.5333 10.6666C25.7067 7.35998 28.6933 5.33331 32.6667 5.33331H50C55.2 5.33331 58.6667 8.79998 58.6667 14Z" stroke="#B9D1F4" stroke-width="3" stroke-miterlimit="10" stroke-linecap="round" stroke-linejoin="round"/>
<path d="M49.3213 19.3333H49.3453M41.8552 19.3333H41.8792M34.3877 19.3333H34.4117" stroke="#B9D1F4" stroke-width="3" stroke-linecap="round" stroke-linejoin="round"/>
</svg>
