<svg width="22" height="22" viewBox="0 0 22 22" fill="none" xmlns="http://www.w3.org/2000/svg">
<path opacity="0.4" d="M14.545 2.53845H7.45424C4.37424 2.53845 2.53809 4.37461 2.53809 7.45461V14.5369C2.53809 17.6254 4.37424 19.4615 7.45424 19.4615H14.5365C17.6165 19.4615 19.4527 17.6254 19.4527 14.5454V7.45461C19.4612 4.37461 17.625 2.53845 14.545 2.53845Z" fill="#DD3333"/>
<path d="M9.79762 14.0293C9.62839 14.0293 9.46762 13.9616 9.34916 13.8431L6.95455 11.4485C6.70916 11.2031 6.70916 10.797 6.95455 10.5516C7.19993 10.3062 7.60608 10.3062 7.85147 10.5516L9.79762 12.4977L14.1469 8.14852C14.3922 7.90313 14.7984 7.90313 15.0438 8.14852C15.2892 8.3939 15.2892 8.80005 15.0438 9.04544L10.2461 13.8431C10.1276 13.9616 9.96685 14.0293 9.79762 14.0293Z" fill="#DD3333"/>
</svg>
