<svg width="28" height="28" viewBox="0 0 28 28" fill="none" xmlns="http://www.w3.org/2000/svg">
<g opacity="0.4">
<path d="M12.5418 19.67V22.0384C12.5418 24.045 10.6752 25.6667 8.37682 25.6667C6.07849 25.6667 4.20013 24.045 4.20013 22.0384V19.67C4.20013 21.6766 6.06682 23.1 8.37682 23.1C10.6752 23.1 12.5418 21.665 12.5418 19.67Z" stroke="#04102B" stroke-width="1.5" stroke-linecap="round" stroke-linejoin="round"/>
<path d="M12.5415 16.4617C12.5415 17.045 12.3781 17.5817 12.0981 18.0483C11.4098 19.18 9.99812 19.8917 8.36479 19.8917C6.73145 19.8917 5.31977 19.1683 4.63144 18.0483C4.35144 17.5817 4.18817 17.045 4.18817 16.4617C4.18817 15.4583 4.65481 14.56 5.40148 13.9067C6.15981 13.2417 7.19811 12.845 8.35311 12.845C9.50811 12.845 10.5465 13.2533 11.3048 13.9067C12.0748 14.5483 12.5415 15.4583 12.5415 16.4617Z" stroke="#04102B" stroke-width="1.5" stroke-linecap="round" stroke-linejoin="round"/>
<path d="M12.5418 16.4617V19.67C12.5418 21.6767 10.6752 23.1 8.37682 23.1C6.07849 23.1 4.20013 21.665 4.20013 19.67V16.4617C4.20013 14.455 6.06682 12.8333 8.37682 12.8333C9.53182 12.8333 10.5702 13.2416 11.3285 13.895C12.0752 14.5483 12.5418 15.4583 12.5418 16.4617Z" stroke="#04102B" stroke-width="1.5" stroke-linecap="round" stroke-linejoin="round"/>
</g>
<path d="M25.6667 12.7983V15.2017C25.6667 15.8434 25.1534 16.3683 24.5 16.3916H22.2134C20.9534 16.3916 19.7984 15.47 19.6934 14.21C19.6234 13.475 19.9034 12.7866 20.3934 12.3083C20.825 11.865 21.42 11.6083 22.0734 11.6083H24.5C25.1534 11.6317 25.6667 12.1566 25.6667 12.7983Z" stroke="#04102B" stroke-width="1.5" stroke-linecap="round" stroke-linejoin="round"/>
<path d="M2.33331 12.25V9.91668C2.33331 6.74334 4.24665 4.52667 7.22165 4.15334C7.52498 4.10667 7.83998 4.08334 8.16665 4.08334H18.6666C18.97 4.08334 19.2616 4.095 19.5416 4.14166C22.5516 4.49166 24.5 6.72001 24.5 9.91668V11.6084H22.0733C21.42 11.6084 20.825 11.865 20.3933 12.3083C19.9033 12.7867 19.6233 13.475 19.6933 14.21C19.7983 15.47 20.9533 16.3917 22.2133 16.3917H24.5V18.0833C24.5 21.5833 22.1666 23.9167 18.6666 23.9167H15.75" stroke="#04102B" stroke-width="1.5" stroke-linecap="round" stroke-linejoin="round"/>
</svg>
