<svg width="22" height="22" viewBox="0 0 22 22" fill="none" xmlns="http://www.w3.org/2000/svg">
<g opacity="0.4">
<path d="M9.85497 15.455V17.3158C9.85497 18.8925 8.3883 20.1667 6.58246 20.1667C4.77663 20.1667 3.30078 18.8925 3.30078 17.3158V15.455C3.30078 17.0317 4.76746 18.15 6.58246 18.15C8.3883 18.15 9.85497 17.0225 9.85497 15.455Z" stroke="#04102B" stroke-width="1.5" stroke-linecap="round" stroke-linejoin="round"/>
<path d="M9.85432 12.9342C9.85432 13.3925 9.72599 13.8142 9.50599 14.1808C8.96515 15.07 7.85597 15.6292 6.57264 15.6292C5.28931 15.6292 4.18013 15.0608 3.6393 14.1808C3.4193 13.8142 3.29102 13.3925 3.29102 12.9342C3.29102 12.1458 3.65766 11.44 4.24433 10.9267C4.84016 10.4042 5.65597 10.0925 6.56347 10.0925C7.47097 10.0925 8.28683 10.4133 8.88266 10.9267C9.48766 11.4308 9.85432 12.1458 9.85432 12.9342Z" stroke="#04102B" stroke-width="1.5" stroke-linecap="round" stroke-linejoin="round"/>
<path d="M9.85497 12.9342V15.455C9.85497 17.0317 8.3883 18.15 6.58246 18.15C4.77663 18.15 3.30078 17.0225 3.30078 15.455V12.9342C3.30078 11.3575 4.76746 10.0833 6.58246 10.0833C7.48996 10.0833 8.30582 10.4042 8.90166 10.9175C9.48832 11.4308 9.85497 12.1458 9.85497 12.9342Z" stroke="#04102B" stroke-width="1.5" stroke-linecap="round" stroke-linejoin="round"/>
</g>
<path d="M20.1665 10.0558V11.9442C20.1665 12.4484 19.7632 12.8608 19.2499 12.8792H17.4532C16.4632 12.8792 15.5557 12.155 15.4732 11.165C15.4182 10.5875 15.6382 10.0467 16.0232 9.67083C16.3624 9.32249 16.8299 9.12085 17.3432 9.12085H19.2499C19.7632 9.13918 20.1665 9.55164 20.1665 10.0558Z" stroke="#04102B" stroke-width="1.5" stroke-linecap="round" stroke-linejoin="round"/>
<path d="M1.83301 9.62501V7.79168C1.83301 5.29834 3.33634 3.55667 5.67384 3.26334C5.91218 3.22667 6.15967 3.20834 6.41634 3.20834H14.6663C14.9047 3.20834 15.1338 3.2175 15.3538 3.25417C17.7188 3.52917 19.2497 5.28001 19.2497 7.79168V9.12086H17.343C16.8297 9.12086 16.3622 9.3225 16.023 9.67083C15.638 10.0467 15.418 10.5875 15.473 11.165C15.5555 12.155 16.463 12.8792 17.453 12.8792H19.2497V14.2083C19.2497 16.9583 17.4163 18.7917 14.6663 18.7917H12.3747" stroke="#04102B" stroke-width="1.5" stroke-linecap="round" stroke-linejoin="round"/>
</svg>
