<svg width="30" height="30" viewBox="0 0 30 30" fill="none" xmlns="http://www.w3.org/2000/svg">
<g opacity="0.4">
<path d="M13.4375 21.075V23.6125C13.4375 25.7625 11.4375 27.5 8.97502 27.5C6.51252 27.5 4.5 25.7625 4.5 23.6125V21.075C4.5 23.225 6.50002 24.75 8.97502 24.75C11.4375 24.75 13.4375 23.2125 13.4375 21.075Z" stroke="#2F5BEA" stroke-width="1.5" stroke-linecap="round" stroke-linejoin="round"/>
<path d="M13.4373 17.6375C13.4373 18.2625 13.2623 18.8375 12.9623 19.3375C12.2248 20.55 10.7122 21.3125 8.96225 21.3125C7.21225 21.3125 5.69973 20.5375 4.96223 19.3375C4.66223 18.8375 4.4873 18.2625 4.4873 17.6375C4.4873 16.5625 4.98728 15.6 5.78728 14.9C6.59978 14.1875 7.71225 13.7625 8.94975 13.7625C10.1872 13.7625 11.2998 14.2 12.1123 14.9C12.9373 15.5875 13.4373 16.5625 13.4373 17.6375Z" stroke="#2F5BEA" stroke-width="1.5" stroke-linecap="round" stroke-linejoin="round"/>
<path d="M13.4375 17.6375V21.075C13.4375 23.225 11.4375 24.75 8.97502 24.75C6.51252 24.75 4.5 23.2125 4.5 21.075V17.6375C4.5 15.4875 6.50002 13.75 8.97502 13.75C10.2125 13.75 11.3251 14.1875 12.1376 14.8875C12.9376 15.5875 13.4375 16.5625 13.4375 17.6375Z" stroke="#2F5BEA" stroke-width="1.5" stroke-linecap="round" stroke-linejoin="round"/>
</g>
<path d="M27.5003 13.7124V16.2875C27.5003 16.975 26.9503 17.5375 26.2503 17.5625H23.8002C22.4502 17.5625 21.2128 16.575 21.1003 15.225C21.0253 14.4375 21.3252 13.7 21.8502 13.1875C22.3127 12.7125 22.9502 12.4375 23.6502 12.4375H26.2503C26.9503 12.4625 27.5003 13.0249 27.5003 13.7124Z" stroke="#2F5BEA" stroke-width="1.5" stroke-linecap="round" stroke-linejoin="round"/>
<path d="M2.5 13.125V10.625C2.5 7.225 4.55 4.85 7.7375 4.45C8.0625 4.4 8.4 4.375 8.75 4.375H20C20.325 4.375 20.6375 4.38748 20.9375 4.43748C24.1625 4.81248 26.25 7.2 26.25 10.625V12.4375H23.65C22.95 12.4375 22.3125 12.7125 21.85 13.1875C21.325 13.7 21.025 14.4375 21.1 15.225C21.2125 16.575 22.45 17.5625 23.8 17.5625H26.25V19.375C26.25 23.125 23.75 25.625 20 25.625H16.875" stroke="#2F5BEA" stroke-width="1.5" stroke-linecap="round" stroke-linejoin="round"/>
</svg>
