<svg width="64" height="64" viewBox="0 0 64 64" fill="none" xmlns="http://www.w3.org/2000/svg">
<path d="M17.1733 5.33331H46.8C56.2933 5.33331 58.6666 7.70665 58.6666 17.1733V34.0533C58.6666 43.5466 56.2933 45.8933 46.8266 45.8933H17.1733C7.70665 45.92 5.33331 43.5466 5.33331 34.08V17.1733C5.33331 7.70665 7.70665 5.33331 17.1733 5.33331Z" stroke="#2F5BEA" stroke-width="4" stroke-linecap="round" stroke-linejoin="round"/>
<path d="M20.1667 17L15 22.1501L20.1667 27.3003M43.8333 17L49 22.1501L43.8333 27.3003" stroke="#B9D1F4" stroke-width="1.5" stroke-miterlimit="10" stroke-linecap="round" stroke-linejoin="round"/>
<path opacity="0.4" d="M32 45.9206V58.6672M5.33331 37.5H58.6666" stroke="#2F5BEA" stroke-width="4" stroke-linecap="round" stroke-linejoin="round"/>
<path d="M20 58.6667H44" stroke="#2F5BEA" stroke-width="4" stroke-linecap="round" stroke-linejoin="round"/>
<path d="M31.9311 24.9252C32.1278 24.8482 32.3034 24.7362 32.479 24.6103L33.8626 23.5045C36.1311 21.6918 38.8421 18.0384 39.9237 15.3508C40.0922 14.9449 39.9658 14.546 39.6989 14.287C39.4461 14.0281 39.0458 13.9161 38.6314 14.0701C35.9415 15.1409 32.2612 17.8564 30.4492 20.117L29.3536 21.4958C29.2061 21.6638 29.0867 21.8667 29.0094 22.0837C29.1499 22.0697 29.2904 22.0837 29.4308 22.0907C30.0278 22.1677 30.6107 22.4476 31.0883 22.9236C31.5589 23.3925 31.8258 23.9384 31.903 24.5263C31.9241 24.6593 31.9311 24.7992 31.9311 24.9252ZM31.9311 24.9252C31.9311 25.6951 31.6362 26.4299 31.0813 26.9898C30.6529 27.4167 30.07 27.7107 29.3747 27.8017L27.6469 27.9907C26.7058 28.0957 25.8981 27.2977 26.0105 26.3459L26.2001 24.6243C26.3687 23.0915 27.6539 22.1117 29.0165 22.0837C29.1569 22.0767 29.3044 22.0836 29.4379 22.0906C30.0348 22.1676 30.6178 22.4406 31.0954 22.9236C31.5659 23.3925 31.8328 23.9383 31.9101 24.5262C31.9171 24.6592 31.9311 24.7922 31.9311 24.9252ZM34.607 22.7205C34.607 20.8938 33.1181 19.4101 31.285 19.4101" stroke="#B9D1F4" stroke-width="1.5" stroke-linecap="round" stroke-linejoin="round"/>
</svg>
