<svg width="54" height="50" viewBox="0 0 54 50" fill="none" xmlns="http://www.w3.org/2000/svg">
<path d="M17.5 8C17.5 3.58172 21.0817 0 25.5 0H45.5C49.9183 0 53.5 3.58172 53.5 8V34C53.5 35.1046 52.6046 36 51.5 36H25.5C21.0817 36 17.5 32.4183 17.5 28V8Z" fill="#26C3F4" fill-opacity="0.08"/>
<path d="M41.7425 20.5075L36.7498 15.5131V9.75035C36.7698 8.80388 36.0188 8.02041 35.0724 8.00039C35.0482 7.9999 35.024 7.9999 34.9999 8.00039H7.00015C6.05368 7.98038 5.27021 8.73136 5.25011 9.67783C5.24962 9.70203 5.24962 9.72615 5.25011 9.75035V15.5131L0.256589 20.5066C0.0925284 20.6707 0.000244141 20.8932 0.000244141 21.1252V45.625C0.00311521 48.04 1.9602 49.997 4.37517 49.9999H37.6248C40.0399 49.997 41.9969 48.0399 41.9998 45.625V21.1253C41.9993 20.8934 41.9067 20.6712 41.7425 20.5075ZM5.25011 17.9875V20.2502C5.25011 20.7335 5.64189 21.1253 6.12513 21.1253C6.60837 21.1253 7.00015 20.7335 7.00015 20.2502V9.75035H34.9999V20.2502C34.9999 20.7335 35.3916 21.1253 35.8749 21.1253C36.3581 21.1253 36.7499 20.7335 36.7499 20.2502V17.9875L39.7441 20.9817L21 33.2054L2.25592 20.9817L5.25011 17.9875ZM40.2498 45.625C40.2498 47.0747 39.0746 48.2499 37.6248 48.2499H4.37517C2.92545 48.2499 1.7502 47.0747 1.7502 45.625V22.7404L16.4413 32.3251L7.25387 41.5125C6.90631 41.8483 6.89671 42.4022 7.23238 42.7498C7.56805 43.0975 8.122 43.107 8.46964 42.7713C8.47694 42.7642 8.48408 42.7571 8.49113 42.7498L17.9375 33.299L20.5205 34.9833C20.8109 35.1726 21.1856 35.1726 21.476 34.9833L24.0625 33.299L33.5062 42.7437C33.8538 43.0794 34.4078 43.0698 34.7435 42.7222C35.0711 42.3831 35.0711 41.8455 34.7435 41.5065L25.5587 32.3251L40.2498 22.7404V45.625Z" fill="#26C3F4"/>
<path d="M11.375 14.1258H30.6248C31.1081 14.1258 31.4999 13.734 31.4999 13.2508C31.4999 12.7675 31.1081 12.3758 30.6248 12.3758H11.375C10.8918 12.3758 10.5 12.7675 10.5 13.2508C10.5 13.734 10.8918 14.1258 11.375 14.1258Z" fill="#26C3F4"/>
<path d="M31.4998 17.6242C31.4998 17.141 31.108 16.7492 30.6248 16.7492H11.375C10.8918 16.7492 10.5 17.141 10.5 17.6242C10.5 18.1074 10.8918 18.4992 11.375 18.4992H30.6248C31.1081 18.4992 31.4998 18.1074 31.4998 17.6242Z" fill="#26C3F4"/>
<path d="M30.6286 21.1249H28.8787C28.3954 21.1249 28.0037 21.5167 28.0037 22C28.0037 22.4832 28.3954 22.875 28.8787 22.875H30.6286C31.1119 22.875 31.5037 22.4832 31.5037 22C31.5036 21.5166 31.1119 21.1249 30.6286 21.1249Z" fill="#26C3F4"/>
<path d="M25.3786 21.1249H23.6287C23.1454 21.1249 22.7537 21.5167 22.7537 22C22.7537 22.4832 23.1454 22.875 23.6287 22.875H25.3786C25.8619 22.875 26.2537 22.4832 26.2537 22C26.2536 21.5166 25.8619 21.1249 25.3786 21.1249Z" fill="#26C3F4"/>
</svg>
