<svg width="54" height="50" viewBox="0 0 54 50" fill="none" xmlns="http://www.w3.org/2000/svg">
<path d="M17.5 8C17.5 3.58172 21.0817 0 25.5 0H45.5C49.9183 0 53.5 3.58172 53.5 8V34C53.5 35.1046 52.6046 36 51.5 36H25.5C21.0817 36 17.5 32.4183 17.5 28V8Z" fill="#579F57" fill-opacity="0.08"/>
<path d="M30.625 9.3125C24.3428 9.31242 19.2499 14.4051 19.2498 20.6873C19.2497 26.9695 24.3424 32.0624 30.6246 32.0625C33.3902 32.0626 36.0611 31.055 38.1376 29.2284C38.5113 28.922 38.5658 28.3707 38.2595 27.9969C37.9531 27.6233 37.4017 27.5687 37.028 27.8751C37.0121 27.8881 36.9967 27.9017 36.9817 27.9159C32.9903 31.4266 26.9085 31.0371 23.3978 27.0457C19.887 23.0543 20.2766 16.9725 24.268 13.4617C28.2594 9.95095 34.3412 10.3405 37.8519 14.3319C39.3971 16.0886 40.2495 18.3479 40.2499 20.6875V44.3125C40.2499 45.7623 39.0746 46.9375 37.6249 46.9375H4.37497C2.92523 46.9375 1.74997 45.7623 1.74997 44.3125V21.7252L16.4018 31.0483L7.2564 40.1939C6.90884 40.5297 6.89924 41.0835 7.23491 41.4312C7.57066 41.7787 8.12454 41.7883 8.47219 41.4527C8.47949 41.4456 8.48662 41.4385 8.49368 41.4312L17.9139 32.011L20.5301 33.6735C20.938 33.933 21.479 33.8127 21.7385 33.4048C21.9981 32.997 21.8777 32.456 21.4699 32.1964L2.28547 19.9875C2.77774 19.3279 3.55195 18.9389 4.37497 18.9375H16.6249C17.1082 18.9375 17.5 18.5457 17.5 18.0624C17.5 17.5792 17.1082 17.1874 16.6249 17.1874H4.37497C1.95997 17.1904 0.00287109 19.1475 0 21.5625V44.3124C0.00287109 46.7275 1.95997 48.6846 4.37497 48.6875H37.6249C40.04 48.6846 41.997 46.7275 41.9999 44.3125V20.6875C41.9928 14.4083 36.9042 9.31972 30.625 9.3125Z" fill="#579F57"/>
<path d="M35.2564 16.5688L28 23.8252L25.9936 21.8188C25.6461 21.4831 25.0921 21.4927 24.7563 21.8403C24.4289 22.1794 24.4289 22.717 24.7563 23.0561L27.3813 25.6811C27.723 26.0227 28.2769 26.0227 28.6186 25.6811L36.4936 17.8061C36.8294 17.4585 36.8197 16.9046 36.4721 16.5688C36.1331 16.2413 35.5955 16.2413 35.2564 16.5688Z" fill="#579F57"/>
</svg>
