<svg width="54" height="50" viewBox="0 0 54 50" fill="none" xmlns="http://www.w3.org/2000/svg">
<path d="M17.5 8C17.5 3.58172 21.0817 0 25.5 0H45.5C49.9183 0 53.5 3.58172 53.5 8V34C53.5 35.1046 52.6046 36 51.5 36H25.5C21.0817 36 17.5 32.4183 17.5 28V8Z" fill="#FCBE07" fill-opacity="0.08"/>
<g clip-path="url(#clip0_79_3021)">
<path d="M41.1188 29.0057C40.6357 29.0057 40.244 29.3974 40.244 29.8805V45.6262C40.244 47.0756 39.0691 48.2505 37.6198 48.2505H4.3789C2.92956 48.2505 1.75462 47.0756 1.75462 45.6262V22.7477L16.4418 32.3299L7.25683 41.5149C6.90936 41.8505 6.89977 42.4043 7.23535 42.7518C7.57093 43.0994 8.12473 43.1089 8.47229 42.7733C8.47959 42.7663 8.48672 42.7591 8.49377 42.7518L17.9377 33.3035L20.5199 34.9874C20.8664 35.2131 21.3237 35.1653 21.616 34.8728L24.2403 32.2485C24.5759 31.9011 24.5663 31.3473 24.2188 31.0116C23.8798 30.6842 23.3424 30.6842 23.0034 31.0116L20.8813 33.1337L2.26111 20.9886L5.25369 17.996V20.2581C5.25369 20.7412 5.64536 21.1329 6.12848 21.1329C6.61159 21.1329 7.00326 20.7412 7.00326 20.2581V9.76098H20.9995C21.4826 9.76098 21.8742 9.36931 21.8742 8.88619C21.8742 8.40308 21.4826 8.0114 20.9995 8.0114H7.00318C6.05696 7.99148 5.2737 8.74227 5.25369 9.68849C5.2532 9.71268 5.2532 9.73679 5.25369 9.76098V15.5222L0.261404 20.5145C0.0973868 20.6785 0.00512695 20.901 0.00512695 21.1329V45.6262C0.00799726 48.0407 1.96456 49.9971 4.3789 50H37.6198C40.0342 49.9971 41.9907 48.0406 41.9935 45.6262V29.8805C41.9936 29.3974 41.6019 29.0057 41.1188 29.0057Z" fill="#FCBE07"/>
<path d="M19.2838 20.2471C19.715 25.8375 24.1568 30.2792 29.7472 30.7105V34.4003C28.6646 34.7272 27.9433 35.7489 27.9977 36.8785V43.8766C27.9565 45.2847 29.0646 46.4597 30.4728 46.5008C30.5225 46.5023 30.5723 46.5023 30.622 46.5008H31.7154C31.8162 46.5008 31.9162 46.4834 32.011 46.4493C33.2659 46.2525 34.1736 45.1457 34.121 43.8766V36.8785C34.121 36.3954 33.7293 36.0037 33.2462 36.0037C32.7631 36.0037 32.3714 36.3954 32.3714 36.8785V43.8766C32.4146 44.3165 32.093 44.7081 31.653 44.7513C31.601 44.7564 31.5486 44.7564 31.4966 44.7513H30.622C30.182 44.7946 29.7904 44.4729 29.7472 44.0329C29.7421 43.981 29.7421 43.9285 29.7472 43.8766V36.8785C29.704 36.4385 30.0256 36.0469 30.4656 36.0037C30.5176 35.9986 30.57 35.9986 30.622 36.0037C31.1051 36.0037 31.4968 35.612 31.4968 35.1289V30.7105C37.7587 30.2274 42.4433 24.7595 41.9602 18.4976C41.4771 12.2357 36.0091 7.55107 29.7472 8.03419C23.4852 8.5173 18.8006 13.9852 19.2838 20.2471ZM30.622 9.76088C35.9362 9.76088 40.2443 14.069 40.2443 19.3832C40.2443 24.6975 35.9362 29.0056 30.622 29.0056C25.3077 29.0056 20.9996 24.6976 20.9996 19.3833C21.0059 14.0716 25.3103 9.7672 30.622 9.76088Z" fill="#FCBE07"/>
<path d="M24.4985 20.258C24.9816 20.258 25.3733 19.8663 25.3733 19.3832C25.3761 16.4856 27.7243 14.1375 30.6218 14.1346C31.105 14.1346 31.4966 13.7429 31.4966 13.2598C31.4966 12.7767 31.105 12.385 30.6218 12.385C26.7587 12.3894 23.6281 15.52 23.6238 19.3831C23.6238 19.8664 24.0154 20.258 24.4985 20.258Z" fill="#FCBE07"/>
</g>
<defs>
<clipPath id="clip0_79_3021">
<rect width="42" height="42" fill="white" transform="translate(0 8)"/>
</clipPath>
</defs>
</svg>
