<svg width="45" height="50" viewBox="0 0 45 50" fill="none" xmlns="http://www.w3.org/2000/svg">
<path d="M9 8C9 3.58172 12.5817 0 17 0H37C41.4183 0 45 3.58172 45 8V34C45 35.1046 44.1046 36 43 36H17C12.5817 36 9 32.4183 9 28V8Z" fill="#2F5BEA" fill-opacity="0.08"/>
<path d="M3.33333 13.3333H36.6667M13.3333 46.6667L20 43.3333V38.3333M26.6667 46.6667L20 43.3333M9.83331 38.3333H30.15C33.3167 38.3333 34.9833 36.6667 34.9833 33.5V13.3333H4.98331V33.5C4.99998 36.6667 6.66665 38.3333 9.83331 38.3333Z" stroke="#292D32" stroke-width="1.5" stroke-miterlimit="10" stroke-linecap="round" stroke-linejoin="round"/>
<path d="M15.2381 30.7143C15.2381 31.241 14.8124 31.6667 14.2857 31.6667C13.759 31.6667 13.3333 31.241 13.3333 30.7143V26.9048C13.3333 26.3791 13.759 25.9524 14.2857 25.9524C14.8124 25.9524 15.2381 26.3791 15.2381 26.9048V30.7143Z" fill="#898A8B"/>
<path d="M26.6667 30.7143C26.6667 31.241 26.2409 31.6667 25.7143 31.6667C25.1876 31.6667 24.7619 31.241 24.7619 30.7143V22.1429C24.7619 21.6172 25.1876 21.1905 25.7143 21.1905C26.2409 21.1905 26.6667 21.6172 26.6667 22.1429V30.7143Z" fill="#898A8B"/>
<path d="M20.9524 30.7143C20.9524 31.241 20.5267 31.6667 20 31.6667C19.4733 31.6667 19.0476 31.241 19.0476 30.7143V19.2857C19.0476 18.76 19.4733 18.3333 20 18.3333C20.5267 18.3333 20.9524 18.76 20.9524 19.2857V30.7143Z" fill="#898A8B"/>
</svg>
