<svg width="45" height="50" viewBox="0 0 45 50" fill="none" xmlns="http://www.w3.org/2000/svg">
<path d="M9 8C9 3.58172 12.5817 0 17 0H37C41.4183 0 45 3.58172 45 8V34C45 35.1046 44.1046 36 43 36H17C12.5817 36 9 32.4183 9 28V8Z" fill="#F8F8F8"/>
<path d="M3.33334 13.3333H36.6667M13.3333 46.6667L20 43.3333V38.3333M26.6667 46.6667L20 43.3333M9.83333 38.3333H30.15C33.3167 38.3333 34.9833 36.6667 34.9833 33.5V13.3333H4.98333V33.5C4.99999 36.6667 6.66666 38.3333 9.83333 38.3333Z" stroke="#292D32" stroke-width="1.5" stroke-miterlimit="10" stroke-linecap="round" stroke-linejoin="round"/>
<g clip-path="url(#clip0_230_50)">
<path d="M20 31C22.2092 31 24 29.2092 24 27C24 24.7909 22.2092 23 20 23C17.7909 23 16 24.7909 16 27C16 29.2092 17.7909 31 20 31Z" stroke="#898A8B" stroke-linecap="round" stroke-linejoin="round"/>
<path d="M24.9583 31.625L24.868 31.5347M24.868 21.7986L24.9583 21.7083M15.0417 31.625L15.1319 31.5347M20 19.7778V19.7222M20 33.6111V33.5556M13.1111 26.6667H13.0555M26.9444 26.6667H26.8889M15.1319 21.7986L15.0417 21.7083" stroke="#898A8B" stroke-width="2" stroke-linecap="round" stroke-linejoin="round"/>
</g>
<defs>
<clipPath id="clip0_230_50">
<rect width="16.6667" height="16.6667" fill="white" transform="translate(11.6667 18.3333)"/>
</clipPath>
</defs>
</svg>
