<svg width="46" height="48" viewBox="0 0 46 48" fill="none" xmlns="http://www.w3.org/2000/svg">
<path d="M10 8C10 3.58172 13.5817 0 18 0H38C42.4183 0 46 3.58172 46 8V34C46 35.1046 45.1046 36 44 36H18C13.5817 36 10 32.4183 10 28V8Z" fill="#579F57" fill-opacity="0.08"/>
<path d="M3.33334 11.3333H36.6667M13.3333 44.6667L20 41.3333V36.3333M26.6667 44.6667L20 41.3333M9.83333 36.3333H30.15C33.3167 36.3333 34.9833 34.6667 34.9833 31.5V11.3333H4.98333V31.5C4.99999 34.6667 6.66666 36.3333 9.83333 36.3333Z" stroke="#292D32" stroke-width="1.5" stroke-miterlimit="10" stroke-linecap="round" stroke-linejoin="round"/>
<path fill-rule="evenodd" clip-rule="evenodd" d="M28.166 23.261C28.0287 23.0459 24.7484 18 20.001 18C15.2535 18 11.9728 23.0459 11.8355 23.261C11.7251 23.4339 11.6667 23.6325 11.6667 23.8352C11.6667 24.0378 11.7251 24.2364 11.8355 24.4094C11.9728 24.6208 15.2524 29.6521 19.9945 29.6667H20.0158C24.7549 29.6667 28.0272 24.6208 28.1641 24.4057C28.2744 24.2335 28.333 24.0356 28.3333 23.8336C28.3337 23.6316 28.2757 23.4335 28.166 23.261ZM20.0185 28.5729H20.001C15.8342 28.5583 12.8035 23.8333 12.8035 23.8333C12.8035 23.8333 15.8342 19.0938 20.001 19.0938C24.1677 19.0938 27.1984 23.8333 27.1984 23.8333C27.1984 23.8333 24.1761 28.5729 20.0185 28.5729ZM20.001 20.9167C19.3969 20.9129 18.8052 21.0808 18.301 21.399C17.7969 21.7172 17.4028 22.1714 17.1689 22.704C16.935 23.2366 16.8718 23.8236 16.9873 24.3906C17.1027 24.9576 17.3916 25.4791 17.8174 25.8889C18.2431 26.2987 18.7866 26.5784 19.3788 26.6925C19.9709 26.8066 20.5852 26.7499 21.1437 26.5297C21.7022 26.3096 22.1797 25.9358 22.5157 25.4557C22.8518 24.9757 23.0312 24.411 23.0312 23.8333C23.0328 23.0626 22.7147 22.3227 22.1467 21.7759C21.5786 21.2291 20.8069 20.9201 20.001 20.9167ZM20.001 25.6562C19.6234 25.6586 19.2536 25.5536 18.9386 25.3547C18.6235 25.1558 18.3772 24.8719 18.2311 24.539C18.0849 24.2062 18.0454 23.8393 18.1176 23.4849C18.1898 23.1305 18.3704 22.8046 18.6365 22.5485C18.9026 22.2924 19.2422 22.1176 19.6123 22.0463C19.9825 21.975 20.3664 22.0104 20.7154 22.1481C21.0644 22.2857 21.3629 22.5194 21.5729 22.8194C21.7829 23.1194 21.895 23.4723 21.895 23.8333C21.8966 24.3152 21.6979 24.7779 21.3427 25.1198C20.9875 25.4616 20.5049 25.6546 20.001 25.6562Z" fill="#898A8B"/>
</svg>
